G04 #@! TF.GenerationSoftware,KiCad,Pcbnew,7.0.6*
G04 #@! TF.CreationDate,2023-08-12T11:28:39-04:00*
G04 #@! TF.ProjectId,jerrysbottom,6a657272-7973-4626-9f74-746f6d2e6b69,rev?*
G04 #@! TF.SameCoordinates,Original*
G04 #@! TF.FileFunction,Legend,Top*
G04 #@! TF.FilePolarity,Positive*
%FSLAX46Y46*%
G04 Gerber Fmt 4.6, Leading zero omitted, Abs format (unit mm)*
G04 Created by KiCad (PCBNEW 7.0.6) date 2023-08-12 11:28:39*
%MOMM*%
%LPD*%
G01*
G04 APERTURE LIST*
G04 Aperture macros list*
%AMFreePoly0*
4,1,5,8.620000,-11.160000,-8.620000,-11.160000,-8.620000,11.160000,8.620000,11.160000,8.620000,-11.160000,8.620000,-11.160000,$1*%
G04 Aperture macros list end*
%ADD10C,0.300000*%
%ADD11C,0.100000*%
%ADD12C,0.150000*%
%ADD13FreePoly0,0.000000*%
%ADD14C,2.384400*%
%ADD15C,2.200000*%
G04 APERTURE END LIST*
D10*
X83048796Y-93137257D02*
X83048796Y-95280114D01*
X83048796Y-95280114D02*
X82905939Y-95708685D01*
X82905939Y-95708685D02*
X82620225Y-95994400D01*
X82620225Y-95994400D02*
X82191653Y-96137257D01*
X82191653Y-96137257D02*
X81905939Y-96137257D01*
X85620224Y-95994400D02*
X85334510Y-96137257D01*
X85334510Y-96137257D02*
X84763082Y-96137257D01*
X84763082Y-96137257D02*
X84477367Y-95994400D01*
X84477367Y-95994400D02*
X84334510Y-95708685D01*
X84334510Y-95708685D02*
X84334510Y-94565828D01*
X84334510Y-94565828D02*
X84477367Y-94280114D01*
X84477367Y-94280114D02*
X84763082Y-94137257D01*
X84763082Y-94137257D02*
X85334510Y-94137257D01*
X85334510Y-94137257D02*
X85620224Y-94280114D01*
X85620224Y-94280114D02*
X85763082Y-94565828D01*
X85763082Y-94565828D02*
X85763082Y-94851542D01*
X85763082Y-94851542D02*
X84334510Y-95137257D01*
X87048796Y-96137257D02*
X87048796Y-94137257D01*
X87048796Y-94708685D02*
X87191653Y-94422971D01*
X87191653Y-94422971D02*
X87334511Y-94280114D01*
X87334511Y-94280114D02*
X87620225Y-94137257D01*
X87620225Y-94137257D02*
X87905939Y-94137257D01*
X88905939Y-96137257D02*
X88905939Y-94137257D01*
X88905939Y-94708685D02*
X89048796Y-94422971D01*
X89048796Y-94422971D02*
X89191654Y-94280114D01*
X89191654Y-94280114D02*
X89477368Y-94137257D01*
X89477368Y-94137257D02*
X89763082Y-94137257D01*
X90477368Y-94137257D02*
X91191654Y-96137257D01*
X91905939Y-94137257D02*
X91191654Y-96137257D01*
X91191654Y-96137257D02*
X90905939Y-96851542D01*
X90905939Y-96851542D02*
X90763082Y-96994400D01*
X90763082Y-96994400D02*
X90477368Y-97137257D01*
X97048796Y-96137257D02*
X96048796Y-94708685D01*
X95334510Y-96137257D02*
X95334510Y-93137257D01*
X95334510Y-93137257D02*
X96477367Y-93137257D01*
X96477367Y-93137257D02*
X96763082Y-93280114D01*
X96763082Y-93280114D02*
X96905939Y-93422971D01*
X96905939Y-93422971D02*
X97048796Y-93708685D01*
X97048796Y-93708685D02*
X97048796Y-94137257D01*
X97048796Y-94137257D02*
X96905939Y-94422971D01*
X96905939Y-94422971D02*
X96763082Y-94565828D01*
X96763082Y-94565828D02*
X96477367Y-94708685D01*
X96477367Y-94708685D02*
X95334510Y-94708685D01*
X98334510Y-96137257D02*
X98334510Y-93137257D01*
X99620225Y-96137257D02*
X99620225Y-94565828D01*
X99620225Y-94565828D02*
X99477367Y-94280114D01*
X99477367Y-94280114D02*
X99191653Y-94137257D01*
X99191653Y-94137257D02*
X98763082Y-94137257D01*
X98763082Y-94137257D02*
X98477367Y-94280114D01*
X98477367Y-94280114D02*
X98334510Y-94422971D01*
X102191653Y-95994400D02*
X101905939Y-96137257D01*
X101905939Y-96137257D02*
X101334511Y-96137257D01*
X101334511Y-96137257D02*
X101048796Y-95994400D01*
X101048796Y-95994400D02*
X100905939Y-95708685D01*
X100905939Y-95708685D02*
X100905939Y-94565828D01*
X100905939Y-94565828D02*
X101048796Y-94280114D01*
X101048796Y-94280114D02*
X101334511Y-94137257D01*
X101334511Y-94137257D02*
X101905939Y-94137257D01*
X101905939Y-94137257D02*
X102191653Y-94280114D01*
X102191653Y-94280114D02*
X102334511Y-94565828D01*
X102334511Y-94565828D02*
X102334511Y-94851542D01*
X102334511Y-94851542D02*
X100905939Y-95137257D01*
X104905940Y-96137257D02*
X104905940Y-94565828D01*
X104905940Y-94565828D02*
X104763082Y-94280114D01*
X104763082Y-94280114D02*
X104477368Y-94137257D01*
X104477368Y-94137257D02*
X103905940Y-94137257D01*
X103905940Y-94137257D02*
X103620225Y-94280114D01*
X104905940Y-95994400D02*
X104620225Y-96137257D01*
X104620225Y-96137257D02*
X103905940Y-96137257D01*
X103905940Y-96137257D02*
X103620225Y-95994400D01*
X103620225Y-95994400D02*
X103477368Y-95708685D01*
X103477368Y-95708685D02*
X103477368Y-95422971D01*
X103477368Y-95422971D02*
X103620225Y-95137257D01*
X103620225Y-95137257D02*
X103905940Y-94994400D01*
X103905940Y-94994400D02*
X104620225Y-94994400D01*
X104620225Y-94994400D02*
X104905940Y-94851542D01*
X52568796Y-133777257D02*
X52568796Y-135920114D01*
X52568796Y-135920114D02*
X52425939Y-136348685D01*
X52425939Y-136348685D02*
X52140225Y-136634400D01*
X52140225Y-136634400D02*
X51711653Y-136777257D01*
X51711653Y-136777257D02*
X51425939Y-136777257D01*
X55140224Y-136634400D02*
X54854510Y-136777257D01*
X54854510Y-136777257D02*
X54283082Y-136777257D01*
X54283082Y-136777257D02*
X53997367Y-136634400D01*
X53997367Y-136634400D02*
X53854510Y-136348685D01*
X53854510Y-136348685D02*
X53854510Y-135205828D01*
X53854510Y-135205828D02*
X53997367Y-134920114D01*
X53997367Y-134920114D02*
X54283082Y-134777257D01*
X54283082Y-134777257D02*
X54854510Y-134777257D01*
X54854510Y-134777257D02*
X55140224Y-134920114D01*
X55140224Y-134920114D02*
X55283082Y-135205828D01*
X55283082Y-135205828D02*
X55283082Y-135491542D01*
X55283082Y-135491542D02*
X53854510Y-135777257D01*
X56568796Y-136777257D02*
X56568796Y-134777257D01*
X56568796Y-135348685D02*
X56711653Y-135062971D01*
X56711653Y-135062971D02*
X56854511Y-134920114D01*
X56854511Y-134920114D02*
X57140225Y-134777257D01*
X57140225Y-134777257D02*
X57425939Y-134777257D01*
X58425939Y-136777257D02*
X58425939Y-134777257D01*
X58425939Y-135348685D02*
X58568796Y-135062971D01*
X58568796Y-135062971D02*
X58711654Y-134920114D01*
X58711654Y-134920114D02*
X58997368Y-134777257D01*
X58997368Y-134777257D02*
X59283082Y-134777257D01*
X59997368Y-134777257D02*
X60711654Y-136777257D01*
X61425939Y-134777257D02*
X60711654Y-136777257D01*
X60711654Y-136777257D02*
X60425939Y-137491542D01*
X60425939Y-137491542D02*
X60283082Y-137634400D01*
X60283082Y-137634400D02*
X59997368Y-137777257D01*
X64711653Y-135920114D02*
X66140225Y-135920114D01*
X64425939Y-136777257D02*
X65425939Y-133777257D01*
X65425939Y-133777257D02*
X66425939Y-136777257D01*
X67854511Y-136777257D02*
X67568796Y-136634400D01*
X67568796Y-136634400D02*
X67425939Y-136348685D01*
X67425939Y-136348685D02*
X67425939Y-133777257D01*
X70140225Y-136634400D02*
X69854511Y-136777257D01*
X69854511Y-136777257D02*
X69283083Y-136777257D01*
X69283083Y-136777257D02*
X68997368Y-136634400D01*
X68997368Y-136634400D02*
X68854511Y-136348685D01*
X68854511Y-136348685D02*
X68854511Y-135205828D01*
X68854511Y-135205828D02*
X68997368Y-134920114D01*
X68997368Y-134920114D02*
X69283083Y-134777257D01*
X69283083Y-134777257D02*
X69854511Y-134777257D01*
X69854511Y-134777257D02*
X70140225Y-134920114D01*
X70140225Y-134920114D02*
X70283083Y-135205828D01*
X70283083Y-135205828D02*
X70283083Y-135491542D01*
X70283083Y-135491542D02*
X68854511Y-135777257D01*
X71283083Y-136777257D02*
X72854512Y-134777257D01*
X71283083Y-134777257D02*
X72854512Y-136777257D01*
D11*
X36916666Y-116707419D02*
X36583333Y-116231228D01*
X36345238Y-116707419D02*
X36345238Y-115707419D01*
X36345238Y-115707419D02*
X36726190Y-115707419D01*
X36726190Y-115707419D02*
X36821428Y-115755038D01*
X36821428Y-115755038D02*
X36869047Y-115802657D01*
X36869047Y-115802657D02*
X36916666Y-115897895D01*
X36916666Y-115897895D02*
X36916666Y-116040752D01*
X36916666Y-116040752D02*
X36869047Y-116135990D01*
X36869047Y-116135990D02*
X36821428Y-116183609D01*
X36821428Y-116183609D02*
X36726190Y-116231228D01*
X36726190Y-116231228D02*
X36345238Y-116231228D01*
X37345238Y-116183609D02*
X37678571Y-116183609D01*
X37821428Y-116707419D02*
X37345238Y-116707419D01*
X37345238Y-116707419D02*
X37345238Y-115707419D01*
X37345238Y-115707419D02*
X37821428Y-115707419D01*
X38583333Y-116183609D02*
X38250000Y-116183609D01*
X38250000Y-116707419D02*
X38250000Y-115707419D01*
X38250000Y-115707419D02*
X38726190Y-115707419D01*
X39250000Y-115707419D02*
X39250000Y-115945514D01*
X39011905Y-115850276D02*
X39250000Y-115945514D01*
X39250000Y-115945514D02*
X39488095Y-115850276D01*
X39107143Y-116135990D02*
X39250000Y-115945514D01*
X39250000Y-115945514D02*
X39392857Y-116135990D01*
X40011905Y-115707419D02*
X40011905Y-115945514D01*
X39773810Y-115850276D02*
X40011905Y-115945514D01*
X40011905Y-115945514D02*
X40250000Y-115850276D01*
X39869048Y-116135990D02*
X40011905Y-115945514D01*
X40011905Y-115945514D02*
X40154762Y-116135990D01*
X114416666Y-150957419D02*
X114083333Y-150481228D01*
X113845238Y-150957419D02*
X113845238Y-149957419D01*
X113845238Y-149957419D02*
X114226190Y-149957419D01*
X114226190Y-149957419D02*
X114321428Y-150005038D01*
X114321428Y-150005038D02*
X114369047Y-150052657D01*
X114369047Y-150052657D02*
X114416666Y-150147895D01*
X114416666Y-150147895D02*
X114416666Y-150290752D01*
X114416666Y-150290752D02*
X114369047Y-150385990D01*
X114369047Y-150385990D02*
X114321428Y-150433609D01*
X114321428Y-150433609D02*
X114226190Y-150481228D01*
X114226190Y-150481228D02*
X113845238Y-150481228D01*
X114845238Y-150433609D02*
X115178571Y-150433609D01*
X115321428Y-150957419D02*
X114845238Y-150957419D01*
X114845238Y-150957419D02*
X114845238Y-149957419D01*
X114845238Y-149957419D02*
X115321428Y-149957419D01*
X116083333Y-150433609D02*
X115750000Y-150433609D01*
X115750000Y-150957419D02*
X115750000Y-149957419D01*
X115750000Y-149957419D02*
X116226190Y-149957419D01*
X116750000Y-149957419D02*
X116750000Y-150195514D01*
X116511905Y-150100276D02*
X116750000Y-150195514D01*
X116750000Y-150195514D02*
X116988095Y-150100276D01*
X116607143Y-150385990D02*
X116750000Y-150195514D01*
X116750000Y-150195514D02*
X116892857Y-150385990D01*
X117511905Y-149957419D02*
X117511905Y-150195514D01*
X117273810Y-150100276D02*
X117511905Y-150195514D01*
X117511905Y-150195514D02*
X117750000Y-150100276D01*
X117369048Y-150385990D02*
X117511905Y-150195514D01*
X117511905Y-150195514D02*
X117654762Y-150385990D01*
X114416666Y-132957419D02*
X114083333Y-132481228D01*
X113845238Y-132957419D02*
X113845238Y-131957419D01*
X113845238Y-131957419D02*
X114226190Y-131957419D01*
X114226190Y-131957419D02*
X114321428Y-132005038D01*
X114321428Y-132005038D02*
X114369047Y-132052657D01*
X114369047Y-132052657D02*
X114416666Y-132147895D01*
X114416666Y-132147895D02*
X114416666Y-132290752D01*
X114416666Y-132290752D02*
X114369047Y-132385990D01*
X114369047Y-132385990D02*
X114321428Y-132433609D01*
X114321428Y-132433609D02*
X114226190Y-132481228D01*
X114226190Y-132481228D02*
X113845238Y-132481228D01*
X114845238Y-132433609D02*
X115178571Y-132433609D01*
X115321428Y-132957419D02*
X114845238Y-132957419D01*
X114845238Y-132957419D02*
X114845238Y-131957419D01*
X114845238Y-131957419D02*
X115321428Y-131957419D01*
X116083333Y-132433609D02*
X115750000Y-132433609D01*
X115750000Y-132957419D02*
X115750000Y-131957419D01*
X115750000Y-131957419D02*
X116226190Y-131957419D01*
X116750000Y-131957419D02*
X116750000Y-132195514D01*
X116511905Y-132100276D02*
X116750000Y-132195514D01*
X116750000Y-132195514D02*
X116988095Y-132100276D01*
X116607143Y-132385990D02*
X116750000Y-132195514D01*
X116750000Y-132195514D02*
X116892857Y-132385990D01*
X117511905Y-131957419D02*
X117511905Y-132195514D01*
X117273810Y-132100276D02*
X117511905Y-132195514D01*
X117511905Y-132195514D02*
X117750000Y-132100276D01*
X117369048Y-132385990D02*
X117511905Y-132195514D01*
X117511905Y-132195514D02*
X117654762Y-132385990D01*
X114416666Y-100957419D02*
X114083333Y-100481228D01*
X113845238Y-100957419D02*
X113845238Y-99957419D01*
X113845238Y-99957419D02*
X114226190Y-99957419D01*
X114226190Y-99957419D02*
X114321428Y-100005038D01*
X114321428Y-100005038D02*
X114369047Y-100052657D01*
X114369047Y-100052657D02*
X114416666Y-100147895D01*
X114416666Y-100147895D02*
X114416666Y-100290752D01*
X114416666Y-100290752D02*
X114369047Y-100385990D01*
X114369047Y-100385990D02*
X114321428Y-100433609D01*
X114321428Y-100433609D02*
X114226190Y-100481228D01*
X114226190Y-100481228D02*
X113845238Y-100481228D01*
X114845238Y-100433609D02*
X115178571Y-100433609D01*
X115321428Y-100957419D02*
X114845238Y-100957419D01*
X114845238Y-100957419D02*
X114845238Y-99957419D01*
X114845238Y-99957419D02*
X115321428Y-99957419D01*
X116083333Y-100433609D02*
X115750000Y-100433609D01*
X115750000Y-100957419D02*
X115750000Y-99957419D01*
X115750000Y-99957419D02*
X116226190Y-99957419D01*
X116750000Y-99957419D02*
X116750000Y-100195514D01*
X116511905Y-100100276D02*
X116750000Y-100195514D01*
X116750000Y-100195514D02*
X116988095Y-100100276D01*
X116607143Y-100385990D02*
X116750000Y-100195514D01*
X116750000Y-100195514D02*
X116892857Y-100385990D01*
X117511905Y-99957419D02*
X117511905Y-100195514D01*
X117273810Y-100100276D02*
X117511905Y-100195514D01*
X117511905Y-100195514D02*
X117750000Y-100100276D01*
X117369048Y-100385990D02*
X117511905Y-100195514D01*
X117511905Y-100195514D02*
X117654762Y-100385990D01*
X114416666Y-82957419D02*
X114083333Y-82481228D01*
X113845238Y-82957419D02*
X113845238Y-81957419D01*
X113845238Y-81957419D02*
X114226190Y-81957419D01*
X114226190Y-81957419D02*
X114321428Y-82005038D01*
X114321428Y-82005038D02*
X114369047Y-82052657D01*
X114369047Y-82052657D02*
X114416666Y-82147895D01*
X114416666Y-82147895D02*
X114416666Y-82290752D01*
X114416666Y-82290752D02*
X114369047Y-82385990D01*
X114369047Y-82385990D02*
X114321428Y-82433609D01*
X114321428Y-82433609D02*
X114226190Y-82481228D01*
X114226190Y-82481228D02*
X113845238Y-82481228D01*
X114845238Y-82433609D02*
X115178571Y-82433609D01*
X115321428Y-82957419D02*
X114845238Y-82957419D01*
X114845238Y-82957419D02*
X114845238Y-81957419D01*
X114845238Y-81957419D02*
X115321428Y-81957419D01*
X116083333Y-82433609D02*
X115750000Y-82433609D01*
X115750000Y-82957419D02*
X115750000Y-81957419D01*
X115750000Y-81957419D02*
X116226190Y-81957419D01*
X116750000Y-81957419D02*
X116750000Y-82195514D01*
X116511905Y-82100276D02*
X116750000Y-82195514D01*
X116750000Y-82195514D02*
X116988095Y-82100276D01*
X116607143Y-82385990D02*
X116750000Y-82195514D01*
X116750000Y-82195514D02*
X116892857Y-82385990D01*
X117511905Y-81957419D02*
X117511905Y-82195514D01*
X117273810Y-82100276D02*
X117511905Y-82195514D01*
X117511905Y-82195514D02*
X117750000Y-82100276D01*
X117369048Y-82385990D02*
X117511905Y-82195514D01*
X117511905Y-82195514D02*
X117654762Y-82385990D01*
X27916666Y-150957419D02*
X27583333Y-150481228D01*
X27345238Y-150957419D02*
X27345238Y-149957419D01*
X27345238Y-149957419D02*
X27726190Y-149957419D01*
X27726190Y-149957419D02*
X27821428Y-150005038D01*
X27821428Y-150005038D02*
X27869047Y-150052657D01*
X27869047Y-150052657D02*
X27916666Y-150147895D01*
X27916666Y-150147895D02*
X27916666Y-150290752D01*
X27916666Y-150290752D02*
X27869047Y-150385990D01*
X27869047Y-150385990D02*
X27821428Y-150433609D01*
X27821428Y-150433609D02*
X27726190Y-150481228D01*
X27726190Y-150481228D02*
X27345238Y-150481228D01*
X28345238Y-150433609D02*
X28678571Y-150433609D01*
X28821428Y-150957419D02*
X28345238Y-150957419D01*
X28345238Y-150957419D02*
X28345238Y-149957419D01*
X28345238Y-149957419D02*
X28821428Y-149957419D01*
X29583333Y-150433609D02*
X29250000Y-150433609D01*
X29250000Y-150957419D02*
X29250000Y-149957419D01*
X29250000Y-149957419D02*
X29726190Y-149957419D01*
X30250000Y-149957419D02*
X30250000Y-150195514D01*
X30011905Y-150100276D02*
X30250000Y-150195514D01*
X30250000Y-150195514D02*
X30488095Y-150100276D01*
X30107143Y-150385990D02*
X30250000Y-150195514D01*
X30250000Y-150195514D02*
X30392857Y-150385990D01*
X31011905Y-149957419D02*
X31011905Y-150195514D01*
X30773810Y-150100276D02*
X31011905Y-150195514D01*
X31011905Y-150195514D02*
X31250000Y-150100276D01*
X30869048Y-150385990D02*
X31011905Y-150195514D01*
X31011905Y-150195514D02*
X31154762Y-150385990D01*
X27916666Y-132957419D02*
X27583333Y-132481228D01*
X27345238Y-132957419D02*
X27345238Y-131957419D01*
X27345238Y-131957419D02*
X27726190Y-131957419D01*
X27726190Y-131957419D02*
X27821428Y-132005038D01*
X27821428Y-132005038D02*
X27869047Y-132052657D01*
X27869047Y-132052657D02*
X27916666Y-132147895D01*
X27916666Y-132147895D02*
X27916666Y-132290752D01*
X27916666Y-132290752D02*
X27869047Y-132385990D01*
X27869047Y-132385990D02*
X27821428Y-132433609D01*
X27821428Y-132433609D02*
X27726190Y-132481228D01*
X27726190Y-132481228D02*
X27345238Y-132481228D01*
X28345238Y-132433609D02*
X28678571Y-132433609D01*
X28821428Y-132957419D02*
X28345238Y-132957419D01*
X28345238Y-132957419D02*
X28345238Y-131957419D01*
X28345238Y-131957419D02*
X28821428Y-131957419D01*
X29583333Y-132433609D02*
X29250000Y-132433609D01*
X29250000Y-132957419D02*
X29250000Y-131957419D01*
X29250000Y-131957419D02*
X29726190Y-131957419D01*
X30250000Y-131957419D02*
X30250000Y-132195514D01*
X30011905Y-132100276D02*
X30250000Y-132195514D01*
X30250000Y-132195514D02*
X30488095Y-132100276D01*
X30107143Y-132385990D02*
X30250000Y-132195514D01*
X30250000Y-132195514D02*
X30392857Y-132385990D01*
X31011905Y-131957419D02*
X31011905Y-132195514D01*
X30773810Y-132100276D02*
X31011905Y-132195514D01*
X31011905Y-132195514D02*
X31250000Y-132100276D01*
X30869048Y-132385990D02*
X31011905Y-132195514D01*
X31011905Y-132195514D02*
X31154762Y-132385990D01*
X27916666Y-100957419D02*
X27583333Y-100481228D01*
X27345238Y-100957419D02*
X27345238Y-99957419D01*
X27345238Y-99957419D02*
X27726190Y-99957419D01*
X27726190Y-99957419D02*
X27821428Y-100005038D01*
X27821428Y-100005038D02*
X27869047Y-100052657D01*
X27869047Y-100052657D02*
X27916666Y-100147895D01*
X27916666Y-100147895D02*
X27916666Y-100290752D01*
X27916666Y-100290752D02*
X27869047Y-100385990D01*
X27869047Y-100385990D02*
X27821428Y-100433609D01*
X27821428Y-100433609D02*
X27726190Y-100481228D01*
X27726190Y-100481228D02*
X27345238Y-100481228D01*
X28345238Y-100433609D02*
X28678571Y-100433609D01*
X28821428Y-100957419D02*
X28345238Y-100957419D01*
X28345238Y-100957419D02*
X28345238Y-99957419D01*
X28345238Y-99957419D02*
X28821428Y-99957419D01*
X29583333Y-100433609D02*
X29250000Y-100433609D01*
X29250000Y-100957419D02*
X29250000Y-99957419D01*
X29250000Y-99957419D02*
X29726190Y-99957419D01*
X30250000Y-99957419D02*
X30250000Y-100195514D01*
X30011905Y-100100276D02*
X30250000Y-100195514D01*
X30250000Y-100195514D02*
X30488095Y-100100276D01*
X30107143Y-100385990D02*
X30250000Y-100195514D01*
X30250000Y-100195514D02*
X30392857Y-100385990D01*
X31011905Y-99957419D02*
X31011905Y-100195514D01*
X30773810Y-100100276D02*
X31011905Y-100195514D01*
X31011905Y-100195514D02*
X31250000Y-100100276D01*
X30869048Y-100385990D02*
X31011905Y-100195514D01*
X31011905Y-100195514D02*
X31154762Y-100385990D01*
X27916666Y-82957419D02*
X27583333Y-82481228D01*
X27345238Y-82957419D02*
X27345238Y-81957419D01*
X27345238Y-81957419D02*
X27726190Y-81957419D01*
X27726190Y-81957419D02*
X27821428Y-82005038D01*
X27821428Y-82005038D02*
X27869047Y-82052657D01*
X27869047Y-82052657D02*
X27916666Y-82147895D01*
X27916666Y-82147895D02*
X27916666Y-82290752D01*
X27916666Y-82290752D02*
X27869047Y-82385990D01*
X27869047Y-82385990D02*
X27821428Y-82433609D01*
X27821428Y-82433609D02*
X27726190Y-82481228D01*
X27726190Y-82481228D02*
X27345238Y-82481228D01*
X28345238Y-82433609D02*
X28678571Y-82433609D01*
X28821428Y-82957419D02*
X28345238Y-82957419D01*
X28345238Y-82957419D02*
X28345238Y-81957419D01*
X28345238Y-81957419D02*
X28821428Y-81957419D01*
X29583333Y-82433609D02*
X29250000Y-82433609D01*
X29250000Y-82957419D02*
X29250000Y-81957419D01*
X29250000Y-81957419D02*
X29726190Y-81957419D01*
X30250000Y-81957419D02*
X30250000Y-82195514D01*
X30011905Y-82100276D02*
X30250000Y-82195514D01*
X30250000Y-82195514D02*
X30488095Y-82100276D01*
X30107143Y-82385990D02*
X30250000Y-82195514D01*
X30250000Y-82195514D02*
X30392857Y-82385990D01*
X31011905Y-81957419D02*
X31011905Y-82195514D01*
X30773810Y-82100276D02*
X31011905Y-82195514D01*
X31011905Y-82195514D02*
X31250000Y-82100276D01*
X30869048Y-82385990D02*
X31011905Y-82195514D01*
X31011905Y-82195514D02*
X31154762Y-82385990D01*
D12*
X113666666Y-72254819D02*
X113333333Y-71778628D01*
X113095238Y-72254819D02*
X113095238Y-71254819D01*
X113095238Y-71254819D02*
X113476190Y-71254819D01*
X113476190Y-71254819D02*
X113571428Y-71302438D01*
X113571428Y-71302438D02*
X113619047Y-71350057D01*
X113619047Y-71350057D02*
X113666666Y-71445295D01*
X113666666Y-71445295D02*
X113666666Y-71588152D01*
X113666666Y-71588152D02*
X113619047Y-71683390D01*
X113619047Y-71683390D02*
X113571428Y-71731009D01*
X113571428Y-71731009D02*
X113476190Y-71778628D01*
X113476190Y-71778628D02*
X113095238Y-71778628D01*
X114095238Y-71731009D02*
X114428571Y-71731009D01*
X114571428Y-72254819D02*
X114095238Y-72254819D01*
X114095238Y-72254819D02*
X114095238Y-71254819D01*
X114095238Y-71254819D02*
X114571428Y-71254819D01*
X115333333Y-71731009D02*
X115000000Y-71731009D01*
X115000000Y-72254819D02*
X115000000Y-71254819D01*
X115000000Y-71254819D02*
X115476190Y-71254819D01*
X116000000Y-71254819D02*
X116000000Y-71492914D01*
X115761905Y-71397676D02*
X116000000Y-71492914D01*
X116000000Y-71492914D02*
X116238095Y-71397676D01*
X115857143Y-71683390D02*
X116000000Y-71492914D01*
X116000000Y-71492914D02*
X116142857Y-71683390D01*
X116761905Y-71254819D02*
X116761905Y-71492914D01*
X116523810Y-71397676D02*
X116761905Y-71492914D01*
X116761905Y-71492914D02*
X117000000Y-71397676D01*
X116619048Y-71683390D02*
X116761905Y-71492914D01*
X116761905Y-71492914D02*
X116904762Y-71683390D01*
X28666666Y-72254819D02*
X28333333Y-71778628D01*
X28095238Y-72254819D02*
X28095238Y-71254819D01*
X28095238Y-71254819D02*
X28476190Y-71254819D01*
X28476190Y-71254819D02*
X28571428Y-71302438D01*
X28571428Y-71302438D02*
X28619047Y-71350057D01*
X28619047Y-71350057D02*
X28666666Y-71445295D01*
X28666666Y-71445295D02*
X28666666Y-71588152D01*
X28666666Y-71588152D02*
X28619047Y-71683390D01*
X28619047Y-71683390D02*
X28571428Y-71731009D01*
X28571428Y-71731009D02*
X28476190Y-71778628D01*
X28476190Y-71778628D02*
X28095238Y-71778628D01*
X29095238Y-71731009D02*
X29428571Y-71731009D01*
X29571428Y-72254819D02*
X29095238Y-72254819D01*
X29095238Y-72254819D02*
X29095238Y-71254819D01*
X29095238Y-71254819D02*
X29571428Y-71254819D01*
X30333333Y-71731009D02*
X30000000Y-71731009D01*
X30000000Y-72254819D02*
X30000000Y-71254819D01*
X30000000Y-71254819D02*
X30476190Y-71254819D01*
X31000000Y-71254819D02*
X31000000Y-71492914D01*
X30761905Y-71397676D02*
X31000000Y-71492914D01*
X31000000Y-71492914D02*
X31238095Y-71397676D01*
X30857143Y-71683390D02*
X31000000Y-71492914D01*
X31000000Y-71492914D02*
X31142857Y-71683390D01*
X31761905Y-71254819D02*
X31761905Y-71492914D01*
X31523810Y-71397676D02*
X31761905Y-71492914D01*
X31761905Y-71492914D02*
X32000000Y-71397676D01*
X31619048Y-71683390D02*
X31761905Y-71492914D01*
X31761905Y-71492914D02*
X31904762Y-71683390D01*
X113666666Y-156254819D02*
X113333333Y-155778628D01*
X113095238Y-156254819D02*
X113095238Y-155254819D01*
X113095238Y-155254819D02*
X113476190Y-155254819D01*
X113476190Y-155254819D02*
X113571428Y-155302438D01*
X113571428Y-155302438D02*
X113619047Y-155350057D01*
X113619047Y-155350057D02*
X113666666Y-155445295D01*
X113666666Y-155445295D02*
X113666666Y-155588152D01*
X113666666Y-155588152D02*
X113619047Y-155683390D01*
X113619047Y-155683390D02*
X113571428Y-155731009D01*
X113571428Y-155731009D02*
X113476190Y-155778628D01*
X113476190Y-155778628D02*
X113095238Y-155778628D01*
X114095238Y-155731009D02*
X114428571Y-155731009D01*
X114571428Y-156254819D02*
X114095238Y-156254819D01*
X114095238Y-156254819D02*
X114095238Y-155254819D01*
X114095238Y-155254819D02*
X114571428Y-155254819D01*
X115333333Y-155731009D02*
X115000000Y-155731009D01*
X115000000Y-156254819D02*
X115000000Y-155254819D01*
X115000000Y-155254819D02*
X115476190Y-155254819D01*
X116000000Y-155254819D02*
X116000000Y-155492914D01*
X115761905Y-155397676D02*
X116000000Y-155492914D01*
X116000000Y-155492914D02*
X116238095Y-155397676D01*
X115857143Y-155683390D02*
X116000000Y-155492914D01*
X116000000Y-155492914D02*
X116142857Y-155683390D01*
X116761905Y-155254819D02*
X116761905Y-155492914D01*
X116523810Y-155397676D02*
X116761905Y-155492914D01*
X116761905Y-155492914D02*
X117000000Y-155397676D01*
X116619048Y-155683390D02*
X116761905Y-155492914D01*
X116761905Y-155492914D02*
X116904762Y-155683390D01*
X28666666Y-156254819D02*
X28333333Y-155778628D01*
X28095238Y-156254819D02*
X28095238Y-155254819D01*
X28095238Y-155254819D02*
X28476190Y-155254819D01*
X28476190Y-155254819D02*
X28571428Y-155302438D01*
X28571428Y-155302438D02*
X28619047Y-155350057D01*
X28619047Y-155350057D02*
X28666666Y-155445295D01*
X28666666Y-155445295D02*
X28666666Y-155588152D01*
X28666666Y-155588152D02*
X28619047Y-155683390D01*
X28619047Y-155683390D02*
X28571428Y-155731009D01*
X28571428Y-155731009D02*
X28476190Y-155778628D01*
X28476190Y-155778628D02*
X28095238Y-155778628D01*
X29095238Y-155731009D02*
X29428571Y-155731009D01*
X29571428Y-156254819D02*
X29095238Y-156254819D01*
X29095238Y-156254819D02*
X29095238Y-155254819D01*
X29095238Y-155254819D02*
X29571428Y-155254819D01*
X30333333Y-155731009D02*
X30000000Y-155731009D01*
X30000000Y-156254819D02*
X30000000Y-155254819D01*
X30000000Y-155254819D02*
X30476190Y-155254819D01*
X31000000Y-155254819D02*
X31000000Y-155492914D01*
X30761905Y-155397676D02*
X31000000Y-155492914D01*
X31000000Y-155492914D02*
X31238095Y-155397676D01*
X30857143Y-155683390D02*
X31000000Y-155492914D01*
X31000000Y-155492914D02*
X31142857Y-155683390D01*
X31761905Y-155254819D02*
X31761905Y-155492914D01*
X31523810Y-155397676D02*
X31761905Y-155492914D01*
X31761905Y-155492914D02*
X32000000Y-155397676D01*
X31619048Y-155683390D02*
X31761905Y-155492914D01*
X31761905Y-155492914D02*
X31904762Y-155683390D01*
G36*
X52443061Y-102348406D02*
G01*
X52838708Y-102428518D01*
X53246854Y-102601936D01*
X53618283Y-102835741D01*
X53903779Y-103097016D01*
X54054126Y-103352845D01*
X54065714Y-103433682D01*
X54037609Y-103585077D01*
X53939183Y-103591488D01*
X53749267Y-103445700D01*
X53563374Y-103262448D01*
X53287346Y-103020573D01*
X52971745Y-102846830D01*
X52549986Y-102709289D01*
X52269982Y-102642222D01*
X52057288Y-102554661D01*
X52025462Y-102453013D01*
X52153908Y-102372241D01*
X52422031Y-102347306D01*
X52443061Y-102348406D01*
G37*
G36*
X93421297Y-102334319D02*
G01*
X93880756Y-102422383D01*
X94653968Y-102688566D01*
X95279976Y-103063156D01*
X95801809Y-103572067D01*
X95813740Y-103586549D01*
X96019307Y-103850130D01*
X96137543Y-104063625D01*
X96192508Y-104302566D01*
X96208265Y-104642487D01*
X96208979Y-104827253D01*
X96208979Y-105585838D01*
X96520000Y-105652378D01*
X97077586Y-105835457D01*
X97733804Y-106157814D01*
X98455875Y-106598344D01*
X99211019Y-107135939D01*
X99966458Y-107749491D01*
X100438436Y-108175558D01*
X100952602Y-108696699D01*
X101448690Y-109266702D01*
X101904921Y-109853851D01*
X102299515Y-110426428D01*
X102610694Y-110952716D01*
X102816679Y-111400996D01*
X102895689Y-111739552D01*
X102895918Y-111754447D01*
X102870332Y-111894124D01*
X102777260Y-112023599D01*
X102592234Y-112156247D01*
X102290784Y-112305444D01*
X101848440Y-112484565D01*
X101240732Y-112706985D01*
X100993431Y-112794378D01*
X100100732Y-113150019D01*
X99409169Y-113522907D01*
X98912741Y-113920964D01*
X98605446Y-114352111D01*
X98481285Y-114824269D01*
X98534255Y-115345362D01*
X98705546Y-115814492D01*
X98825953Y-116039937D01*
X99035695Y-116398522D01*
X99310434Y-116849978D01*
X99625831Y-117354035D01*
X99816771Y-117653024D01*
X100168606Y-118214231D01*
X100514212Y-118791253D01*
X100821743Y-119329178D01*
X101059355Y-119773091D01*
X101131509Y-119920137D01*
X101327593Y-120324526D01*
X101484802Y-120590383D01*
X101648443Y-120768665D01*
X101863823Y-120910331D01*
X102131508Y-121044873D01*
X102780952Y-121446185D01*
X103375830Y-121978760D01*
X103844064Y-122576780D01*
X103887413Y-122648270D01*
X104062829Y-123013303D01*
X104220162Y-123456071D01*
X104342219Y-123911564D01*
X104411803Y-124314770D01*
X104411720Y-124600680D01*
X104408106Y-124616870D01*
X104398093Y-124763770D01*
X104464193Y-124912349D01*
X104632912Y-125093388D01*
X104930756Y-125337666D01*
X105209400Y-125547341D01*
X105478194Y-125846660D01*
X105629020Y-126222589D01*
X105657143Y-126616161D01*
X105557827Y-126968408D01*
X105342895Y-127209902D01*
X104939818Y-127404014D01*
X104371832Y-127562174D01*
X103625141Y-127687396D01*
X102740408Y-127778374D01*
X102058820Y-127833710D01*
X101538594Y-127878271D01*
X101134375Y-127917418D01*
X100800805Y-127956513D01*
X100492528Y-128000920D01*
X100164190Y-128056000D01*
X99770433Y-128127115D01*
X99733877Y-128133817D01*
X99241314Y-128201599D01*
X98586514Y-128258536D01*
X97809738Y-128304039D01*
X96951244Y-128337518D01*
X96051291Y-128358385D01*
X95150140Y-128366049D01*
X94288051Y-128359922D01*
X93505282Y-128339415D01*
X92842093Y-128303938D01*
X92338743Y-128252902D01*
X92274148Y-128242995D01*
X91008602Y-127977056D01*
X89912218Y-127618208D01*
X88964953Y-127158364D01*
X88146767Y-126589436D01*
X88118541Y-126566048D01*
X87492593Y-126044179D01*
X86822623Y-126387983D01*
X85887565Y-126778289D01*
X84886019Y-127036993D01*
X83868222Y-127158324D01*
X82884411Y-127136513D01*
X81984823Y-126965791D01*
X81931401Y-126949693D01*
X81007572Y-126558365D01*
X80168021Y-125991092D01*
X79439547Y-125271152D01*
X78848949Y-124421822D01*
X78702684Y-124145316D01*
X78436728Y-123503087D01*
X78281865Y-122861191D01*
X78242890Y-122200816D01*
X78324598Y-121503152D01*
X78531784Y-120749390D01*
X78869243Y-119920718D01*
X79341770Y-118998327D01*
X79954160Y-117963406D01*
X80491826Y-117126730D01*
X80985175Y-116370292D01*
X81370179Y-115757508D01*
X81660012Y-115264025D01*
X81867852Y-114865493D01*
X82006874Y-114537560D01*
X82090253Y-114255875D01*
X82114822Y-114127139D01*
X82134745Y-113870763D01*
X82077765Y-113664126D01*
X81914047Y-113426737D01*
X81808765Y-113301388D01*
X81306772Y-112867874D01*
X80711920Y-112609236D01*
X80094861Y-112540076D01*
X79713301Y-112549104D01*
X79494054Y-112536083D01*
X79392323Y-112488962D01*
X79363315Y-112395686D01*
X79362040Y-112342898D01*
X79459866Y-112088662D01*
X79743995Y-111893421D01*
X80200402Y-111762672D01*
X80815063Y-111701914D01*
X81006520Y-111698222D01*
X81757397Y-111794767D01*
X82449423Y-112087773D01*
X83070274Y-112571639D01*
X83180185Y-112685787D01*
X83540210Y-113176823D01*
X83743716Y-113719992D01*
X83804694Y-114362010D01*
X83787806Y-114714694D01*
X83731274Y-115136391D01*
X83623517Y-115599372D01*
X83454905Y-116130480D01*
X83215812Y-116756555D01*
X82896610Y-117504440D01*
X82487671Y-118400975D01*
X82393344Y-118602449D01*
X81971703Y-119514817D01*
X81642683Y-120267513D01*
X81400761Y-120883514D01*
X81240413Y-121385798D01*
X81156117Y-121797341D01*
X81142349Y-122141121D01*
X81193585Y-122440114D01*
X81304304Y-122717296D01*
X81373775Y-122843953D01*
X81770655Y-123373730D01*
X82278273Y-123771097D01*
X82659477Y-123966346D01*
X82954690Y-124075691D01*
X83257698Y-124129941D01*
X83643275Y-124138080D01*
X83966061Y-124123351D01*
X84459586Y-124068614D01*
X84959370Y-123970024D01*
X85427063Y-123840772D01*
X85824312Y-123694051D01*
X86112770Y-123543053D01*
X86254085Y-123400970D01*
X86256827Y-123335350D01*
X86146408Y-122907182D01*
X86069263Y-122308379D01*
X86024895Y-121572888D01*
X86012804Y-120734652D01*
X86032492Y-119827615D01*
X86083462Y-118885723D01*
X86165213Y-117942919D01*
X86277249Y-117033148D01*
X86356774Y-116528980D01*
X86555495Y-115467785D01*
X86787916Y-114378226D01*
X87041523Y-113311357D01*
X87303801Y-112318235D01*
X87562238Y-111449915D01*
X87707863Y-111016770D01*
X87873886Y-110514529D01*
X87950817Y-110172909D01*
X87938086Y-109965027D01*
X87835121Y-109864002D01*
X87682890Y-109842041D01*
X87426462Y-109774837D01*
X87076671Y-109595172D01*
X86687992Y-109335969D01*
X86314903Y-109030148D01*
X86269639Y-108987975D01*
X85745989Y-108361872D01*
X85363718Y-107631833D01*
X85133501Y-106840992D01*
X85066013Y-106032484D01*
X85171932Y-105249442D01*
X85268697Y-104943816D01*
X85579524Y-104347339D01*
X86035062Y-103764848D01*
X86578724Y-103260045D01*
X87032022Y-102958771D01*
X87679260Y-102706617D01*
X88370882Y-102610099D01*
X89054751Y-102666934D01*
X89678731Y-102874837D01*
X90027692Y-103090044D01*
X90167934Y-103186892D01*
X90292563Y-103212949D01*
X90458888Y-103157115D01*
X90724221Y-103008291D01*
X90855009Y-102929816D01*
X91701655Y-102526486D01*
X92559286Y-102327618D01*
X93421297Y-102334319D01*
G37*
G36*
X53602392Y-101422719D02*
G01*
X53873686Y-101636278D01*
X54147422Y-101933267D01*
X54373255Y-102265461D01*
X54398598Y-102312837D01*
X54542757Y-102699862D01*
X54622443Y-103120277D01*
X54627317Y-103208729D01*
X54635918Y-103677050D01*
X56642180Y-104660158D01*
X57237180Y-104951272D01*
X57770131Y-105211176D01*
X58212639Y-105426093D01*
X58536307Y-105582244D01*
X58712739Y-105665851D01*
X58734991Y-105675631D01*
X58765340Y-105609711D01*
X58736056Y-105405676D01*
X58714010Y-105318556D01*
X58648893Y-104981412D01*
X58604458Y-104562932D01*
X58594656Y-104353129D01*
X58660980Y-103549532D01*
X58896001Y-102866129D01*
X59300569Y-102301372D01*
X59875535Y-101853717D01*
X60011510Y-101777860D01*
X60274873Y-101649187D01*
X60515509Y-101566811D01*
X60791978Y-101520619D01*
X61162840Y-101500500D01*
X61642007Y-101496327D01*
X62140441Y-101499900D01*
X62487375Y-101517907D01*
X62738628Y-101561282D01*
X62950019Y-101640957D01*
X63177366Y-101767865D01*
X63247261Y-101810740D01*
X63805235Y-102276028D01*
X64248132Y-102904947D01*
X64446801Y-103337468D01*
X64597412Y-103727180D01*
X65940747Y-103762245D01*
X66781862Y-103804687D01*
X67448809Y-103888496D01*
X67972100Y-104021881D01*
X68382244Y-104213048D01*
X68709754Y-104470206D01*
X68758685Y-104520310D01*
X69092147Y-104999230D01*
X69301871Y-105606015D01*
X69392194Y-106357816D01*
X69385679Y-106999510D01*
X69255929Y-107945351D01*
X68972293Y-108752780D01*
X68533864Y-109422739D01*
X67939734Y-109956167D01*
X67188996Y-110354005D01*
X66280742Y-110617193D01*
X65822098Y-110691729D01*
X65411827Y-110745668D01*
X65089951Y-110790067D01*
X64903963Y-110818277D01*
X64876999Y-110824052D01*
X64896595Y-110920841D01*
X64969145Y-111163972D01*
X65079722Y-111503866D01*
X65097934Y-111557967D01*
X65262088Y-112119537D01*
X65437576Y-112854480D01*
X65619265Y-113729475D01*
X65802025Y-114711202D01*
X65980724Y-115766341D01*
X66150231Y-116861571D01*
X66305416Y-117963573D01*
X66441146Y-119039026D01*
X66552290Y-120054610D01*
X66633718Y-120977006D01*
X66680297Y-121772892D01*
X66683069Y-121851158D01*
X66745258Y-123752111D01*
X67162609Y-124028300D01*
X67688028Y-124257887D01*
X68282735Y-124321529D01*
X68908241Y-124230417D01*
X69526062Y-123995744D01*
X70097711Y-123628701D01*
X70584700Y-123140480D01*
X70686859Y-123003447D01*
X70824100Y-122711798D01*
X70878163Y-122331838D01*
X70846558Y-121843652D01*
X70726796Y-121227329D01*
X70516386Y-120462956D01*
X70275738Y-119715510D01*
X70004324Y-118877139D01*
X69800398Y-118141571D01*
X69672139Y-117487444D01*
X69627725Y-116893395D01*
X69675335Y-116338063D01*
X69823146Y-115800084D01*
X70079337Y-115258098D01*
X70452086Y-114690741D01*
X70949570Y-114076652D01*
X71579969Y-113394468D01*
X72351460Y-112622828D01*
X73272221Y-111740368D01*
X73361055Y-111656327D01*
X73868576Y-111171471D01*
X74242490Y-110795103D01*
X74502982Y-110496634D01*
X74670234Y-110245478D01*
X74764431Y-110011048D01*
X74805754Y-109762757D01*
X74814388Y-109470017D01*
X74814325Y-109453951D01*
X74783792Y-108932354D01*
X74678967Y-108532323D01*
X74471268Y-108173179D01*
X74275188Y-107932117D01*
X74063284Y-107660937D01*
X74011471Y-107515184D01*
X74118898Y-107498029D01*
X74363730Y-107601693D01*
X74831238Y-107953876D01*
X75181929Y-108442610D01*
X75407545Y-109027788D01*
X75499826Y-109669304D01*
X75450513Y-110327051D01*
X75251345Y-110960921D01*
X75110494Y-111227911D01*
X74971282Y-111452902D01*
X74833947Y-111659640D01*
X74675764Y-111877004D01*
X74474011Y-112133874D01*
X74205962Y-112459130D01*
X73848895Y-112881651D01*
X73380084Y-113430319D01*
X73348979Y-113466629D01*
X72772905Y-114157270D01*
X72324968Y-114738484D01*
X71982088Y-115242706D01*
X71721181Y-115702375D01*
X71641558Y-115866025D01*
X71501077Y-116200727D01*
X71417401Y-116509193D01*
X71395838Y-116824941D01*
X71441700Y-117181489D01*
X71560295Y-117612354D01*
X71756932Y-118151055D01*
X72036923Y-118831109D01*
X72155023Y-119107398D01*
X72562869Y-120137820D01*
X72838537Y-121029448D01*
X72986273Y-121799632D01*
X73010324Y-122465720D01*
X73002459Y-122569409D01*
X72829127Y-123422920D01*
X72472548Y-124189317D01*
X71925132Y-124883635D01*
X71746031Y-125058462D01*
X70964883Y-125669371D01*
X70124893Y-126118815D01*
X69253640Y-126400314D01*
X68378701Y-126507386D01*
X67527654Y-126433553D01*
X66823549Y-126215145D01*
X66305130Y-125992127D01*
X66029468Y-126319732D01*
X65609762Y-126684237D01*
X65001916Y-127011557D01*
X64223186Y-127292885D01*
X63998598Y-127356404D01*
X63500792Y-127478378D01*
X62977430Y-127580202D01*
X62392388Y-127666460D01*
X61709539Y-127741732D01*
X60892761Y-127810600D01*
X59905926Y-127877644D01*
X59871428Y-127879792D01*
X59137000Y-127929545D01*
X58340586Y-127990371D01*
X57560844Y-128055840D01*
X56876434Y-128119523D01*
X56636110Y-128144215D01*
X55920275Y-128216225D01*
X55371754Y-128259720D01*
X54952670Y-128275995D01*
X54625145Y-128266345D01*
X54351301Y-128232062D01*
X54306951Y-128223797D01*
X54013306Y-128077664D01*
X53712678Y-127773680D01*
X53417539Y-127346346D01*
X53140365Y-126830160D01*
X52893627Y-126259623D01*
X52689800Y-125669235D01*
X52541358Y-125093495D01*
X52460773Y-124566904D01*
X52460521Y-124123960D01*
X52553073Y-123799164D01*
X52661566Y-123672960D01*
X52797594Y-123586644D01*
X52928176Y-123551040D01*
X53074174Y-123581542D01*
X53256449Y-123693546D01*
X53495859Y-123902446D01*
X53813265Y-124223638D01*
X54229527Y-124672515D01*
X54660838Y-125148420D01*
X54935637Y-125447142D01*
X55112096Y-125611774D01*
X55228325Y-125664347D01*
X55322433Y-125626892D01*
X55386553Y-125567954D01*
X55441418Y-125497951D01*
X55483613Y-125394928D01*
X55514436Y-125234336D01*
X55535181Y-124991627D01*
X55547145Y-124642252D01*
X55551626Y-124161664D01*
X55549918Y-123525313D01*
X55543318Y-122708651D01*
X55542437Y-122615965D01*
X55530450Y-121792046D01*
X55511710Y-121054161D01*
X55487375Y-120428446D01*
X55458603Y-119941037D01*
X55426553Y-119618071D01*
X55404806Y-119509592D01*
X55293715Y-119172653D01*
X54391762Y-119172653D01*
X53820731Y-119152945D01*
X53426546Y-119084709D01*
X53181657Y-118954277D01*
X53058516Y-118747978D01*
X53028979Y-118496504D01*
X53111634Y-118137623D01*
X53366239Y-117768319D01*
X53802756Y-117377863D01*
X54431148Y-116955528D01*
X54496477Y-116916172D01*
X54919892Y-116642611D01*
X55215155Y-116408623D01*
X55354471Y-116236677D01*
X55360132Y-116217959D01*
X55377192Y-116048761D01*
X55398196Y-115708114D01*
X55421821Y-115231850D01*
X55446745Y-114655799D01*
X55471645Y-114015794D01*
X55495198Y-113347665D01*
X55516083Y-112687244D01*
X55532976Y-112070362D01*
X55544555Y-111532851D01*
X55549496Y-111110541D01*
X55549560Y-111086123D01*
X55478897Y-110098343D01*
X55267019Y-108983282D01*
X54919080Y-107760524D01*
X54440234Y-106449651D01*
X54144402Y-105746939D01*
X53961519Y-105319692D01*
X53808458Y-104942000D01*
X53706984Y-104668562D01*
X53681072Y-104582528D01*
X53668590Y-104191069D01*
X53810660Y-103882405D01*
X54058638Y-103712238D01*
X54243992Y-103629132D01*
X54317688Y-103507464D01*
X54312044Y-103275213D01*
X54299891Y-103174617D01*
X54164580Y-102614811D01*
X53898786Y-102174675D01*
X53598545Y-101889010D01*
X53349381Y-101652331D01*
X53243070Y-101466243D01*
X53290163Y-101357700D01*
X53383882Y-101340816D01*
X53602392Y-101422719D01*
G37*
%LPC*%
D13*
X38250000Y-116750000D03*
D14*
X115750000Y-151000000D03*
X115750000Y-133000000D03*
X115750000Y-101000000D03*
X115750000Y-83000000D03*
X29250000Y-151000000D03*
X29250000Y-133000000D03*
X29250000Y-101000000D03*
X29250000Y-83000000D03*
D15*
X115000000Y-75000000D03*
X30000000Y-75000000D03*
X115000000Y-159000000D03*
X30000000Y-159000000D03*
%LPD*%
M02*
