%TF.GenerationSoftware,KiCad,Pcbnew,7.0.6*%
%TF.CreationDate,2023-08-12T11:28:30-04:00*%
%TF.ProjectId,jerrysbottom,6a657272-7973-4626-9f74-746f6d2e6b69,rev?*%
%TF.SameCoordinates,Original*%
%TF.FileFunction,Drillmap*%
%TF.FilePolarity,Positive*%
%FSLAX45Y45*%
G04 Gerber Fmt 4.5, Leading zero omitted, Abs format (unit mm)*
G04 Created by KiCad (PCBNEW 7.0.6) date 2023-08-12 11:28:30*
%MOMM*%
%LPD*%
G01*
G04 APERTURE LIST*
%ADD10C,0.200000*%
%ADD11C,0.100000*%
%ADD12C,0.218440*%
%ADD13C,1.524000*%
G04 APERTURE END LIST*
D10*
X3034220Y-8300000D02*
G75*
G03*
X3034220Y-8300000I-109220J0D01*
G01*
D11*
X11925000Y-7000000D02*
X2575000Y-7000000D01*
D10*
X3130000Y-15900000D02*
G75*
G03*
X3130000Y-15900000I-130000J0D01*
G01*
D11*
X2575000Y-7000000D02*
G75*
G03*
X2500000Y-7075000I-6030J-68970D01*
G01*
D10*
X3034220Y-13300000D02*
G75*
G03*
X3034220Y-13300000I-109220J0D01*
G01*
D11*
X2575000Y-16400000D02*
X11925000Y-16400000D01*
D10*
X11630000Y-7500000D02*
G75*
G03*
X11630000Y-7500000I-130000J0D01*
G01*
X3130000Y-7500000D02*
G75*
G03*
X3130000Y-7500000I-130000J0D01*
G01*
X11684220Y-8300000D02*
G75*
G03*
X11684220Y-8300000I-109220J0D01*
G01*
X3034220Y-15100000D02*
G75*
G03*
X3034220Y-15100000I-109220J0D01*
G01*
D11*
X2500000Y-7075000D02*
X2500000Y-16325000D01*
D10*
X3048000Y-10668000D02*
X4572000Y-10668000D01*
X4572000Y-12700000D01*
X3048000Y-12700000D01*
X3048000Y-10668000D01*
D11*
X11925000Y-16400000D02*
G75*
G03*
X12000000Y-16325000I6030J68970D01*
G01*
D10*
X11630000Y-15900000D02*
G75*
G03*
X11630000Y-15900000I-130000J0D01*
G01*
X3034220Y-10100000D02*
G75*
G03*
X3034220Y-10100000I-109220J0D01*
G01*
D11*
X12000000Y-7075000D02*
G75*
G03*
X11925000Y-7000000I-68970J6030D01*
G01*
X12000000Y-16325000D02*
X12000000Y-7075000D01*
X2500000Y-16325000D02*
G75*
G03*
X2575000Y-16400000I68970J-6030D01*
G01*
D10*
X11684220Y-15100000D02*
G75*
G03*
X11684220Y-15100000I-109220J0D01*
G01*
X11684220Y-10100000D02*
G75*
G03*
X11684220Y-10100000I-109220J0D01*
G01*
X11684220Y-13300000D02*
G75*
G03*
X11684220Y-13300000I-109220J0D01*
G01*
D12*
X2815780Y-8190780D02*
X3034220Y-8409220D01*
X3034220Y-8190780D02*
X2815780Y-8409220D01*
X2815780Y-9990780D02*
X3034220Y-10209220D01*
X3034220Y-9990780D02*
X2815780Y-10209220D01*
X2815780Y-13190780D02*
X3034220Y-13409220D01*
X3034220Y-13190780D02*
X2815780Y-13409220D01*
X2815780Y-14990780D02*
X3034220Y-15209220D01*
X3034220Y-14990780D02*
X2815780Y-15209220D01*
X11465780Y-8190780D02*
X11684220Y-8409220D01*
X11684220Y-8190780D02*
X11465780Y-8409220D01*
X11465780Y-9990780D02*
X11684220Y-10209220D01*
X11684220Y-9990780D02*
X11465780Y-10209220D01*
X11465780Y-13190780D02*
X11684220Y-13409220D01*
X11684220Y-13190780D02*
X11465780Y-13409220D01*
X11465780Y-14990780D02*
X11684220Y-15209220D01*
X11684220Y-14990780D02*
X11465780Y-15209220D01*
D13*
X4587000Y-11675000D02*
G75*
G03*
X4587000Y-11675000I-762000J0D01*
G01*
D10*
X3063000Y-11421000D02*
X3063000Y-11929000D01*
X3063000Y-11929000D02*
G75*
G03*
X4587000Y-11929000I762000J0D01*
G01*
X4587000Y-11929000D02*
X4587000Y-11421000D01*
X4587000Y-11421000D02*
G75*
G03*
X3063000Y-11421000I-762000J0D01*
G01*
X2755514Y-16716747D02*
X2755514Y-16516747D01*
X2755514Y-16516747D02*
X2803133Y-16516747D01*
X2803133Y-16516747D02*
X2831704Y-16526271D01*
X2831704Y-16526271D02*
X2850752Y-16545318D01*
X2850752Y-16545318D02*
X2860276Y-16564366D01*
X2860276Y-16564366D02*
X2869799Y-16602461D01*
X2869799Y-16602461D02*
X2869799Y-16631033D01*
X2869799Y-16631033D02*
X2860276Y-16669128D01*
X2860276Y-16669128D02*
X2850752Y-16688175D01*
X2850752Y-16688175D02*
X2831704Y-16707223D01*
X2831704Y-16707223D02*
X2803133Y-16716747D01*
X2803133Y-16716747D02*
X2755514Y-16716747D01*
X2955514Y-16716747D02*
X2955514Y-16583413D01*
X2955514Y-16621509D02*
X2965037Y-16602461D01*
X2965037Y-16602461D02*
X2974561Y-16592937D01*
X2974561Y-16592937D02*
X2993609Y-16583413D01*
X2993609Y-16583413D02*
X3012657Y-16583413D01*
X3079323Y-16716747D02*
X3079323Y-16583413D01*
X3079323Y-16516747D02*
X3069799Y-16526271D01*
X3069799Y-16526271D02*
X3079323Y-16535794D01*
X3079323Y-16535794D02*
X3088847Y-16526271D01*
X3088847Y-16526271D02*
X3079323Y-16516747D01*
X3079323Y-16516747D02*
X3079323Y-16535794D01*
X3203133Y-16716747D02*
X3184085Y-16707223D01*
X3184085Y-16707223D02*
X3174561Y-16688175D01*
X3174561Y-16688175D02*
X3174561Y-16516747D01*
X3307895Y-16716747D02*
X3288847Y-16707223D01*
X3288847Y-16707223D02*
X3279323Y-16688175D01*
X3279323Y-16688175D02*
X3279323Y-16516747D01*
X3536466Y-16716747D02*
X3536466Y-16516747D01*
X3536466Y-16516747D02*
X3603133Y-16659604D01*
X3603133Y-16659604D02*
X3669799Y-16516747D01*
X3669799Y-16516747D02*
X3669799Y-16716747D01*
X3850752Y-16716747D02*
X3850752Y-16611985D01*
X3850752Y-16611985D02*
X3841228Y-16592937D01*
X3841228Y-16592937D02*
X3822180Y-16583413D01*
X3822180Y-16583413D02*
X3784085Y-16583413D01*
X3784085Y-16583413D02*
X3765037Y-16592937D01*
X3850752Y-16707223D02*
X3831704Y-16716747D01*
X3831704Y-16716747D02*
X3784085Y-16716747D01*
X3784085Y-16716747D02*
X3765037Y-16707223D01*
X3765037Y-16707223D02*
X3755514Y-16688175D01*
X3755514Y-16688175D02*
X3755514Y-16669128D01*
X3755514Y-16669128D02*
X3765037Y-16650080D01*
X3765037Y-16650080D02*
X3784085Y-16640556D01*
X3784085Y-16640556D02*
X3831704Y-16640556D01*
X3831704Y-16640556D02*
X3850752Y-16631033D01*
X3945990Y-16583413D02*
X3945990Y-16783414D01*
X3945990Y-16592937D02*
X3965037Y-16583413D01*
X3965037Y-16583413D02*
X4003133Y-16583413D01*
X4003133Y-16583413D02*
X4022180Y-16592937D01*
X4022180Y-16592937D02*
X4031704Y-16602461D01*
X4031704Y-16602461D02*
X4041228Y-16621509D01*
X4041228Y-16621509D02*
X4041228Y-16678652D01*
X4041228Y-16678652D02*
X4031704Y-16697699D01*
X4031704Y-16697699D02*
X4022180Y-16707223D01*
X4022180Y-16707223D02*
X4003133Y-16716747D01*
X4003133Y-16716747D02*
X3965037Y-16716747D01*
X3965037Y-16716747D02*
X3945990Y-16707223D01*
X4126942Y-16697699D02*
X4136466Y-16707223D01*
X4136466Y-16707223D02*
X4126942Y-16716747D01*
X4126942Y-16716747D02*
X4117418Y-16707223D01*
X4117418Y-16707223D02*
X4126942Y-16697699D01*
X4126942Y-16697699D02*
X4126942Y-16716747D01*
X4126942Y-16592937D02*
X4136466Y-16602461D01*
X4136466Y-16602461D02*
X4126942Y-16611985D01*
X4126942Y-16611985D02*
X4117418Y-16602461D01*
X4117418Y-16602461D02*
X4126942Y-16592937D01*
X4126942Y-16592937D02*
X4126942Y-16611985D01*
X2294737Y-16945263D02*
X2494737Y-17145263D01*
X2494737Y-16945263D02*
X2294737Y-17145263D01*
X2745990Y-16955795D02*
X2755514Y-16946271D01*
X2755514Y-16946271D02*
X2774561Y-16936747D01*
X2774561Y-16936747D02*
X2822180Y-16936747D01*
X2822180Y-16936747D02*
X2841228Y-16946271D01*
X2841228Y-16946271D02*
X2850752Y-16955795D01*
X2850752Y-16955795D02*
X2860276Y-16974842D01*
X2860276Y-16974842D02*
X2860276Y-16993890D01*
X2860276Y-16993890D02*
X2850752Y-17022461D01*
X2850752Y-17022461D02*
X2736466Y-17136747D01*
X2736466Y-17136747D02*
X2860276Y-17136747D01*
X2945990Y-17117699D02*
X2955514Y-17127223D01*
X2955514Y-17127223D02*
X2945990Y-17136747D01*
X2945990Y-17136747D02*
X2936466Y-17127223D01*
X2936466Y-17127223D02*
X2945990Y-17117699D01*
X2945990Y-17117699D02*
X2945990Y-17136747D01*
X3145990Y-17136747D02*
X3031704Y-17136747D01*
X3088847Y-17136747D02*
X3088847Y-16936747D01*
X3088847Y-16936747D02*
X3069799Y-16965318D01*
X3069799Y-16965318D02*
X3050752Y-16984366D01*
X3050752Y-16984366D02*
X3031704Y-16993890D01*
X3260276Y-17022461D02*
X3241228Y-17012937D01*
X3241228Y-17012937D02*
X3231704Y-17003414D01*
X3231704Y-17003414D02*
X3222180Y-16984366D01*
X3222180Y-16984366D02*
X3222180Y-16974842D01*
X3222180Y-16974842D02*
X3231704Y-16955795D01*
X3231704Y-16955795D02*
X3241228Y-16946271D01*
X3241228Y-16946271D02*
X3260276Y-16936747D01*
X3260276Y-16936747D02*
X3298371Y-16936747D01*
X3298371Y-16936747D02*
X3317418Y-16946271D01*
X3317418Y-16946271D02*
X3326942Y-16955795D01*
X3326942Y-16955795D02*
X3336466Y-16974842D01*
X3336466Y-16974842D02*
X3336466Y-16984366D01*
X3336466Y-16984366D02*
X3326942Y-17003414D01*
X3326942Y-17003414D02*
X3317418Y-17012937D01*
X3317418Y-17012937D02*
X3298371Y-17022461D01*
X3298371Y-17022461D02*
X3260276Y-17022461D01*
X3260276Y-17022461D02*
X3241228Y-17031985D01*
X3241228Y-17031985D02*
X3231704Y-17041509D01*
X3231704Y-17041509D02*
X3222180Y-17060556D01*
X3222180Y-17060556D02*
X3222180Y-17098652D01*
X3222180Y-17098652D02*
X3231704Y-17117699D01*
X3231704Y-17117699D02*
X3241228Y-17127223D01*
X3241228Y-17127223D02*
X3260276Y-17136747D01*
X3260276Y-17136747D02*
X3298371Y-17136747D01*
X3298371Y-17136747D02*
X3317418Y-17127223D01*
X3317418Y-17127223D02*
X3326942Y-17117699D01*
X3326942Y-17117699D02*
X3336466Y-17098652D01*
X3336466Y-17098652D02*
X3336466Y-17060556D01*
X3336466Y-17060556D02*
X3326942Y-17041509D01*
X3326942Y-17041509D02*
X3317418Y-17031985D01*
X3317418Y-17031985D02*
X3298371Y-17022461D01*
X3507895Y-17003414D02*
X3507895Y-17136747D01*
X3460276Y-16927223D02*
X3412657Y-17070080D01*
X3412657Y-17070080D02*
X3536466Y-17070080D01*
X3612657Y-17136747D02*
X3612657Y-17003414D01*
X3612657Y-17022461D02*
X3622180Y-17012937D01*
X3622180Y-17012937D02*
X3641228Y-17003414D01*
X3641228Y-17003414D02*
X3669799Y-17003414D01*
X3669799Y-17003414D02*
X3688847Y-17012937D01*
X3688847Y-17012937D02*
X3698371Y-17031985D01*
X3698371Y-17031985D02*
X3698371Y-17136747D01*
X3698371Y-17031985D02*
X3707895Y-17012937D01*
X3707895Y-17012937D02*
X3726942Y-17003414D01*
X3726942Y-17003414D02*
X3755514Y-17003414D01*
X3755514Y-17003414D02*
X3774561Y-17012937D01*
X3774561Y-17012937D02*
X3784085Y-17031985D01*
X3784085Y-17031985D02*
X3784085Y-17136747D01*
X3879323Y-17136747D02*
X3879323Y-17003414D01*
X3879323Y-17022461D02*
X3888847Y-17012937D01*
X3888847Y-17012937D02*
X3907895Y-17003414D01*
X3907895Y-17003414D02*
X3936466Y-17003414D01*
X3936466Y-17003414D02*
X3955514Y-17012937D01*
X3955514Y-17012937D02*
X3965038Y-17031985D01*
X3965038Y-17031985D02*
X3965038Y-17136747D01*
X3965038Y-17031985D02*
X3974561Y-17012937D01*
X3974561Y-17012937D02*
X3993609Y-17003414D01*
X3993609Y-17003414D02*
X4022180Y-17003414D01*
X4022180Y-17003414D02*
X4041228Y-17012937D01*
X4041228Y-17012937D02*
X4050752Y-17031985D01*
X4050752Y-17031985D02*
X4050752Y-17136747D01*
X4441228Y-16927223D02*
X4269800Y-17184366D01*
X4698371Y-16936747D02*
X4717419Y-16936747D01*
X4717419Y-16936747D02*
X4736466Y-16946271D01*
X4736466Y-16946271D02*
X4745990Y-16955795D01*
X4745990Y-16955795D02*
X4755514Y-16974842D01*
X4755514Y-16974842D02*
X4765038Y-17012937D01*
X4765038Y-17012937D02*
X4765038Y-17060556D01*
X4765038Y-17060556D02*
X4755514Y-17098652D01*
X4755514Y-17098652D02*
X4745990Y-17117699D01*
X4745990Y-17117699D02*
X4736466Y-17127223D01*
X4736466Y-17127223D02*
X4717419Y-17136747D01*
X4717419Y-17136747D02*
X4698371Y-17136747D01*
X4698371Y-17136747D02*
X4679323Y-17127223D01*
X4679323Y-17127223D02*
X4669800Y-17117699D01*
X4669800Y-17117699D02*
X4660276Y-17098652D01*
X4660276Y-17098652D02*
X4650752Y-17060556D01*
X4650752Y-17060556D02*
X4650752Y-17012937D01*
X4650752Y-17012937D02*
X4660276Y-16974842D01*
X4660276Y-16974842D02*
X4669800Y-16955795D01*
X4669800Y-16955795D02*
X4679323Y-16946271D01*
X4679323Y-16946271D02*
X4698371Y-16936747D01*
X4850752Y-17117699D02*
X4860276Y-17127223D01*
X4860276Y-17127223D02*
X4850752Y-17136747D01*
X4850752Y-17136747D02*
X4841228Y-17127223D01*
X4841228Y-17127223D02*
X4850752Y-17117699D01*
X4850752Y-17117699D02*
X4850752Y-17136747D01*
X4984085Y-16936747D02*
X5003133Y-16936747D01*
X5003133Y-16936747D02*
X5022181Y-16946271D01*
X5022181Y-16946271D02*
X5031704Y-16955795D01*
X5031704Y-16955795D02*
X5041228Y-16974842D01*
X5041228Y-16974842D02*
X5050752Y-17012937D01*
X5050752Y-17012937D02*
X5050752Y-17060556D01*
X5050752Y-17060556D02*
X5041228Y-17098652D01*
X5041228Y-17098652D02*
X5031704Y-17117699D01*
X5031704Y-17117699D02*
X5022181Y-17127223D01*
X5022181Y-17127223D02*
X5003133Y-17136747D01*
X5003133Y-17136747D02*
X4984085Y-17136747D01*
X4984085Y-17136747D02*
X4965038Y-17127223D01*
X4965038Y-17127223D02*
X4955514Y-17117699D01*
X4955514Y-17117699D02*
X4945990Y-17098652D01*
X4945990Y-17098652D02*
X4936466Y-17060556D01*
X4936466Y-17060556D02*
X4936466Y-17012937D01*
X4936466Y-17012937D02*
X4945990Y-16974842D01*
X4945990Y-16974842D02*
X4955514Y-16955795D01*
X4955514Y-16955795D02*
X4965038Y-16946271D01*
X4965038Y-16946271D02*
X4984085Y-16936747D01*
X5165038Y-17022461D02*
X5145990Y-17012937D01*
X5145990Y-17012937D02*
X5136466Y-17003414D01*
X5136466Y-17003414D02*
X5126943Y-16984366D01*
X5126943Y-16984366D02*
X5126943Y-16974842D01*
X5126943Y-16974842D02*
X5136466Y-16955795D01*
X5136466Y-16955795D02*
X5145990Y-16946271D01*
X5145990Y-16946271D02*
X5165038Y-16936747D01*
X5165038Y-16936747D02*
X5203133Y-16936747D01*
X5203133Y-16936747D02*
X5222181Y-16946271D01*
X5222181Y-16946271D02*
X5231704Y-16955795D01*
X5231704Y-16955795D02*
X5241228Y-16974842D01*
X5241228Y-16974842D02*
X5241228Y-16984366D01*
X5241228Y-16984366D02*
X5231704Y-17003414D01*
X5231704Y-17003414D02*
X5222181Y-17012937D01*
X5222181Y-17012937D02*
X5203133Y-17022461D01*
X5203133Y-17022461D02*
X5165038Y-17022461D01*
X5165038Y-17022461D02*
X5145990Y-17031985D01*
X5145990Y-17031985D02*
X5136466Y-17041509D01*
X5136466Y-17041509D02*
X5126943Y-17060556D01*
X5126943Y-17060556D02*
X5126943Y-17098652D01*
X5126943Y-17098652D02*
X5136466Y-17117699D01*
X5136466Y-17117699D02*
X5145990Y-17127223D01*
X5145990Y-17127223D02*
X5165038Y-17136747D01*
X5165038Y-17136747D02*
X5203133Y-17136747D01*
X5203133Y-17136747D02*
X5222181Y-17127223D01*
X5222181Y-17127223D02*
X5231704Y-17117699D01*
X5231704Y-17117699D02*
X5241228Y-17098652D01*
X5241228Y-17098652D02*
X5241228Y-17060556D01*
X5241228Y-17060556D02*
X5231704Y-17041509D01*
X5231704Y-17041509D02*
X5222181Y-17031985D01*
X5222181Y-17031985D02*
X5203133Y-17022461D01*
X5412657Y-16936747D02*
X5374562Y-16936747D01*
X5374562Y-16936747D02*
X5355514Y-16946271D01*
X5355514Y-16946271D02*
X5345990Y-16955795D01*
X5345990Y-16955795D02*
X5326943Y-16984366D01*
X5326943Y-16984366D02*
X5317419Y-17022461D01*
X5317419Y-17022461D02*
X5317419Y-17098652D01*
X5317419Y-17098652D02*
X5326943Y-17117699D01*
X5326943Y-17117699D02*
X5336466Y-17127223D01*
X5336466Y-17127223D02*
X5355514Y-17136747D01*
X5355514Y-17136747D02*
X5393609Y-17136747D01*
X5393609Y-17136747D02*
X5412657Y-17127223D01*
X5412657Y-17127223D02*
X5422181Y-17117699D01*
X5422181Y-17117699D02*
X5431704Y-17098652D01*
X5431704Y-17098652D02*
X5431704Y-17051033D01*
X5431704Y-17051033D02*
X5422181Y-17031985D01*
X5422181Y-17031985D02*
X5412657Y-17022461D01*
X5412657Y-17022461D02*
X5393609Y-17012937D01*
X5393609Y-17012937D02*
X5355514Y-17012937D01*
X5355514Y-17012937D02*
X5336466Y-17022461D01*
X5336466Y-17022461D02*
X5326943Y-17031985D01*
X5326943Y-17031985D02*
X5317419Y-17051033D01*
X5555514Y-16936747D02*
X5574562Y-16936747D01*
X5574562Y-16936747D02*
X5593609Y-16946271D01*
X5593609Y-16946271D02*
X5603133Y-16955795D01*
X5603133Y-16955795D02*
X5612657Y-16974842D01*
X5612657Y-16974842D02*
X5622181Y-17012937D01*
X5622181Y-17012937D02*
X5622181Y-17060556D01*
X5622181Y-17060556D02*
X5612657Y-17098652D01*
X5612657Y-17098652D02*
X5603133Y-17117699D01*
X5603133Y-17117699D02*
X5593609Y-17127223D01*
X5593609Y-17127223D02*
X5574562Y-17136747D01*
X5574562Y-17136747D02*
X5555514Y-17136747D01*
X5555514Y-17136747D02*
X5536466Y-17127223D01*
X5536466Y-17127223D02*
X5526943Y-17117699D01*
X5526943Y-17117699D02*
X5517419Y-17098652D01*
X5517419Y-17098652D02*
X5507895Y-17060556D01*
X5507895Y-17060556D02*
X5507895Y-17012937D01*
X5507895Y-17012937D02*
X5517419Y-16974842D01*
X5517419Y-16974842D02*
X5526943Y-16955795D01*
X5526943Y-16955795D02*
X5536466Y-16946271D01*
X5536466Y-16946271D02*
X5555514Y-16936747D01*
X5698371Y-16936747D02*
X5698371Y-16974842D01*
X5774562Y-16936747D02*
X5774562Y-16974842D01*
X6069800Y-17212937D02*
X6060276Y-17203414D01*
X6060276Y-17203414D02*
X6041228Y-17174842D01*
X6041228Y-17174842D02*
X6031704Y-17155795D01*
X6031704Y-17155795D02*
X6022181Y-17127223D01*
X6022181Y-17127223D02*
X6012657Y-17079604D01*
X6012657Y-17079604D02*
X6012657Y-17041509D01*
X6012657Y-17041509D02*
X6022181Y-16993890D01*
X6022181Y-16993890D02*
X6031704Y-16965318D01*
X6031704Y-16965318D02*
X6041228Y-16946271D01*
X6041228Y-16946271D02*
X6060276Y-16917699D01*
X6060276Y-16917699D02*
X6069800Y-16908175D01*
X6174562Y-17022461D02*
X6155514Y-17012937D01*
X6155514Y-17012937D02*
X6145990Y-17003414D01*
X6145990Y-17003414D02*
X6136466Y-16984366D01*
X6136466Y-16984366D02*
X6136466Y-16974842D01*
X6136466Y-16974842D02*
X6145990Y-16955795D01*
X6145990Y-16955795D02*
X6155514Y-16946271D01*
X6155514Y-16946271D02*
X6174562Y-16936747D01*
X6174562Y-16936747D02*
X6212657Y-16936747D01*
X6212657Y-16936747D02*
X6231704Y-16946271D01*
X6231704Y-16946271D02*
X6241228Y-16955795D01*
X6241228Y-16955795D02*
X6250752Y-16974842D01*
X6250752Y-16974842D02*
X6250752Y-16984366D01*
X6250752Y-16984366D02*
X6241228Y-17003414D01*
X6241228Y-17003414D02*
X6231704Y-17012937D01*
X6231704Y-17012937D02*
X6212657Y-17022461D01*
X6212657Y-17022461D02*
X6174562Y-17022461D01*
X6174562Y-17022461D02*
X6155514Y-17031985D01*
X6155514Y-17031985D02*
X6145990Y-17041509D01*
X6145990Y-17041509D02*
X6136466Y-17060556D01*
X6136466Y-17060556D02*
X6136466Y-17098652D01*
X6136466Y-17098652D02*
X6145990Y-17117699D01*
X6145990Y-17117699D02*
X6155514Y-17127223D01*
X6155514Y-17127223D02*
X6174562Y-17136747D01*
X6174562Y-17136747D02*
X6212657Y-17136747D01*
X6212657Y-17136747D02*
X6231704Y-17127223D01*
X6231704Y-17127223D02*
X6241228Y-17117699D01*
X6241228Y-17117699D02*
X6250752Y-17098652D01*
X6250752Y-17098652D02*
X6250752Y-17060556D01*
X6250752Y-17060556D02*
X6241228Y-17041509D01*
X6241228Y-17041509D02*
X6231704Y-17031985D01*
X6231704Y-17031985D02*
X6212657Y-17022461D01*
X6488847Y-17136747D02*
X6488847Y-16936747D01*
X6574562Y-17136747D02*
X6574562Y-17031985D01*
X6574562Y-17031985D02*
X6565038Y-17012937D01*
X6565038Y-17012937D02*
X6545990Y-17003414D01*
X6545990Y-17003414D02*
X6517419Y-17003414D01*
X6517419Y-17003414D02*
X6498371Y-17012937D01*
X6498371Y-17012937D02*
X6488847Y-17022461D01*
X6698371Y-17136747D02*
X6679324Y-17127223D01*
X6679324Y-17127223D02*
X6669800Y-17117699D01*
X6669800Y-17117699D02*
X6660276Y-17098652D01*
X6660276Y-17098652D02*
X6660276Y-17041509D01*
X6660276Y-17041509D02*
X6669800Y-17022461D01*
X6669800Y-17022461D02*
X6679324Y-17012937D01*
X6679324Y-17012937D02*
X6698371Y-17003414D01*
X6698371Y-17003414D02*
X6726943Y-17003414D01*
X6726943Y-17003414D02*
X6745990Y-17012937D01*
X6745990Y-17012937D02*
X6755514Y-17022461D01*
X6755514Y-17022461D02*
X6765038Y-17041509D01*
X6765038Y-17041509D02*
X6765038Y-17098652D01*
X6765038Y-17098652D02*
X6755514Y-17117699D01*
X6755514Y-17117699D02*
X6745990Y-17127223D01*
X6745990Y-17127223D02*
X6726943Y-17136747D01*
X6726943Y-17136747D02*
X6698371Y-17136747D01*
X6879324Y-17136747D02*
X6860276Y-17127223D01*
X6860276Y-17127223D02*
X6850752Y-17108175D01*
X6850752Y-17108175D02*
X6850752Y-16936747D01*
X7031705Y-17127223D02*
X7012657Y-17136747D01*
X7012657Y-17136747D02*
X6974562Y-17136747D01*
X6974562Y-17136747D02*
X6955514Y-17127223D01*
X6955514Y-17127223D02*
X6945990Y-17108175D01*
X6945990Y-17108175D02*
X6945990Y-17031985D01*
X6945990Y-17031985D02*
X6955514Y-17012937D01*
X6955514Y-17012937D02*
X6974562Y-17003414D01*
X6974562Y-17003414D02*
X7012657Y-17003414D01*
X7012657Y-17003414D02*
X7031705Y-17012937D01*
X7031705Y-17012937D02*
X7041228Y-17031985D01*
X7041228Y-17031985D02*
X7041228Y-17051033D01*
X7041228Y-17051033D02*
X6945990Y-17070080D01*
X7117419Y-17127223D02*
X7136466Y-17136747D01*
X7136466Y-17136747D02*
X7174562Y-17136747D01*
X7174562Y-17136747D02*
X7193609Y-17127223D01*
X7193609Y-17127223D02*
X7203133Y-17108175D01*
X7203133Y-17108175D02*
X7203133Y-17098652D01*
X7203133Y-17098652D02*
X7193609Y-17079604D01*
X7193609Y-17079604D02*
X7174562Y-17070080D01*
X7174562Y-17070080D02*
X7145990Y-17070080D01*
X7145990Y-17070080D02*
X7126943Y-17060556D01*
X7126943Y-17060556D02*
X7117419Y-17041509D01*
X7117419Y-17041509D02*
X7117419Y-17031985D01*
X7117419Y-17031985D02*
X7126943Y-17012937D01*
X7126943Y-17012937D02*
X7145990Y-17003414D01*
X7145990Y-17003414D02*
X7174562Y-17003414D01*
X7174562Y-17003414D02*
X7193609Y-17012937D01*
X7269800Y-17212937D02*
X7279324Y-17203414D01*
X7279324Y-17203414D02*
X7298371Y-17174842D01*
X7298371Y-17174842D02*
X7307895Y-17155795D01*
X7307895Y-17155795D02*
X7317419Y-17127223D01*
X7317419Y-17127223D02*
X7326943Y-17079604D01*
X7326943Y-17079604D02*
X7326943Y-17041509D01*
X7326943Y-17041509D02*
X7317419Y-16993890D01*
X7317419Y-16993890D02*
X7307895Y-16965318D01*
X7307895Y-16965318D02*
X7298371Y-16946271D01*
X7298371Y-16946271D02*
X7279324Y-16917699D01*
X7279324Y-16917699D02*
X7269800Y-16908175D01*
X2494737Y-17365263D02*
G75*
G03*
X2494737Y-17365263I-100000J0D01*
G01*
X2860276Y-17456747D02*
X2745990Y-17456747D01*
X2803133Y-17456747D02*
X2803133Y-17256747D01*
X2803133Y-17256747D02*
X2784085Y-17285318D01*
X2784085Y-17285318D02*
X2765038Y-17304366D01*
X2765038Y-17304366D02*
X2745990Y-17313890D01*
X3041228Y-17256747D02*
X2945990Y-17256747D01*
X2945990Y-17256747D02*
X2936466Y-17351985D01*
X2936466Y-17351985D02*
X2945990Y-17342461D01*
X2945990Y-17342461D02*
X2965037Y-17332937D01*
X2965037Y-17332937D02*
X3012657Y-17332937D01*
X3012657Y-17332937D02*
X3031704Y-17342461D01*
X3031704Y-17342461D02*
X3041228Y-17351985D01*
X3041228Y-17351985D02*
X3050752Y-17371033D01*
X3050752Y-17371033D02*
X3050752Y-17418652D01*
X3050752Y-17418652D02*
X3041228Y-17437699D01*
X3041228Y-17437699D02*
X3031704Y-17447223D01*
X3031704Y-17447223D02*
X3012657Y-17456747D01*
X3012657Y-17456747D02*
X2965037Y-17456747D01*
X2965037Y-17456747D02*
X2945990Y-17447223D01*
X2945990Y-17447223D02*
X2936466Y-17437699D01*
X3136466Y-17437699D02*
X3145990Y-17447223D01*
X3145990Y-17447223D02*
X3136466Y-17456747D01*
X3136466Y-17456747D02*
X3126942Y-17447223D01*
X3126942Y-17447223D02*
X3136466Y-17437699D01*
X3136466Y-17437699D02*
X3136466Y-17456747D01*
X3222180Y-17275795D02*
X3231704Y-17266271D01*
X3231704Y-17266271D02*
X3250752Y-17256747D01*
X3250752Y-17256747D02*
X3298371Y-17256747D01*
X3298371Y-17256747D02*
X3317418Y-17266271D01*
X3317418Y-17266271D02*
X3326942Y-17275795D01*
X3326942Y-17275795D02*
X3336466Y-17294842D01*
X3336466Y-17294842D02*
X3336466Y-17313890D01*
X3336466Y-17313890D02*
X3326942Y-17342461D01*
X3326942Y-17342461D02*
X3212657Y-17456747D01*
X3212657Y-17456747D02*
X3336466Y-17456747D01*
X3507895Y-17323414D02*
X3507895Y-17456747D01*
X3460276Y-17247223D02*
X3412657Y-17390080D01*
X3412657Y-17390080D02*
X3536466Y-17390080D01*
X3650752Y-17256747D02*
X3669799Y-17256747D01*
X3669799Y-17256747D02*
X3688847Y-17266271D01*
X3688847Y-17266271D02*
X3698371Y-17275795D01*
X3698371Y-17275795D02*
X3707895Y-17294842D01*
X3707895Y-17294842D02*
X3717418Y-17332937D01*
X3717418Y-17332937D02*
X3717418Y-17380556D01*
X3717418Y-17380556D02*
X3707895Y-17418652D01*
X3707895Y-17418652D02*
X3698371Y-17437699D01*
X3698371Y-17437699D02*
X3688847Y-17447223D01*
X3688847Y-17447223D02*
X3669799Y-17456747D01*
X3669799Y-17456747D02*
X3650752Y-17456747D01*
X3650752Y-17456747D02*
X3631704Y-17447223D01*
X3631704Y-17447223D02*
X3622180Y-17437699D01*
X3622180Y-17437699D02*
X3612657Y-17418652D01*
X3612657Y-17418652D02*
X3603133Y-17380556D01*
X3603133Y-17380556D02*
X3603133Y-17332937D01*
X3603133Y-17332937D02*
X3612657Y-17294842D01*
X3612657Y-17294842D02*
X3622180Y-17275795D01*
X3622180Y-17275795D02*
X3631704Y-17266271D01*
X3631704Y-17266271D02*
X3650752Y-17256747D01*
X3803133Y-17456747D02*
X3803133Y-17323414D01*
X3803133Y-17342461D02*
X3812657Y-17332937D01*
X3812657Y-17332937D02*
X3831704Y-17323414D01*
X3831704Y-17323414D02*
X3860276Y-17323414D01*
X3860276Y-17323414D02*
X3879323Y-17332937D01*
X3879323Y-17332937D02*
X3888847Y-17351985D01*
X3888847Y-17351985D02*
X3888847Y-17456747D01*
X3888847Y-17351985D02*
X3898371Y-17332937D01*
X3898371Y-17332937D02*
X3917418Y-17323414D01*
X3917418Y-17323414D02*
X3945990Y-17323414D01*
X3945990Y-17323414D02*
X3965038Y-17332937D01*
X3965038Y-17332937D02*
X3974561Y-17351985D01*
X3974561Y-17351985D02*
X3974561Y-17456747D01*
X4069799Y-17456747D02*
X4069799Y-17323414D01*
X4069799Y-17342461D02*
X4079323Y-17332937D01*
X4079323Y-17332937D02*
X4098371Y-17323414D01*
X4098371Y-17323414D02*
X4126942Y-17323414D01*
X4126942Y-17323414D02*
X4145990Y-17332937D01*
X4145990Y-17332937D02*
X4155514Y-17351985D01*
X4155514Y-17351985D02*
X4155514Y-17456747D01*
X4155514Y-17351985D02*
X4165038Y-17332937D01*
X4165038Y-17332937D02*
X4184085Y-17323414D01*
X4184085Y-17323414D02*
X4212657Y-17323414D01*
X4212657Y-17323414D02*
X4231704Y-17332937D01*
X4231704Y-17332937D02*
X4241228Y-17351985D01*
X4241228Y-17351985D02*
X4241228Y-17456747D01*
X4631704Y-17247223D02*
X4460276Y-17504366D01*
X4888847Y-17256747D02*
X4907895Y-17256747D01*
X4907895Y-17256747D02*
X4926943Y-17266271D01*
X4926943Y-17266271D02*
X4936466Y-17275795D01*
X4936466Y-17275795D02*
X4945990Y-17294842D01*
X4945990Y-17294842D02*
X4955514Y-17332937D01*
X4955514Y-17332937D02*
X4955514Y-17380556D01*
X4955514Y-17380556D02*
X4945990Y-17418652D01*
X4945990Y-17418652D02*
X4936466Y-17437699D01*
X4936466Y-17437699D02*
X4926943Y-17447223D01*
X4926943Y-17447223D02*
X4907895Y-17456747D01*
X4907895Y-17456747D02*
X4888847Y-17456747D01*
X4888847Y-17456747D02*
X4869800Y-17447223D01*
X4869800Y-17447223D02*
X4860276Y-17437699D01*
X4860276Y-17437699D02*
X4850752Y-17418652D01*
X4850752Y-17418652D02*
X4841228Y-17380556D01*
X4841228Y-17380556D02*
X4841228Y-17332937D01*
X4841228Y-17332937D02*
X4850752Y-17294842D01*
X4850752Y-17294842D02*
X4860276Y-17275795D01*
X4860276Y-17275795D02*
X4869800Y-17266271D01*
X4869800Y-17266271D02*
X4888847Y-17256747D01*
X5041228Y-17437699D02*
X5050752Y-17447223D01*
X5050752Y-17447223D02*
X5041228Y-17456747D01*
X5041228Y-17456747D02*
X5031704Y-17447223D01*
X5031704Y-17447223D02*
X5041228Y-17437699D01*
X5041228Y-17437699D02*
X5041228Y-17456747D01*
X5222181Y-17256747D02*
X5184085Y-17256747D01*
X5184085Y-17256747D02*
X5165038Y-17266271D01*
X5165038Y-17266271D02*
X5155514Y-17275795D01*
X5155514Y-17275795D02*
X5136466Y-17304366D01*
X5136466Y-17304366D02*
X5126943Y-17342461D01*
X5126943Y-17342461D02*
X5126943Y-17418652D01*
X5126943Y-17418652D02*
X5136466Y-17437699D01*
X5136466Y-17437699D02*
X5145990Y-17447223D01*
X5145990Y-17447223D02*
X5165038Y-17456747D01*
X5165038Y-17456747D02*
X5203133Y-17456747D01*
X5203133Y-17456747D02*
X5222181Y-17447223D01*
X5222181Y-17447223D02*
X5231704Y-17437699D01*
X5231704Y-17437699D02*
X5241228Y-17418652D01*
X5241228Y-17418652D02*
X5241228Y-17371033D01*
X5241228Y-17371033D02*
X5231704Y-17351985D01*
X5231704Y-17351985D02*
X5222181Y-17342461D01*
X5222181Y-17342461D02*
X5203133Y-17332937D01*
X5203133Y-17332937D02*
X5165038Y-17332937D01*
X5165038Y-17332937D02*
X5145990Y-17342461D01*
X5145990Y-17342461D02*
X5136466Y-17351985D01*
X5136466Y-17351985D02*
X5126943Y-17371033D01*
X5365038Y-17256747D02*
X5384085Y-17256747D01*
X5384085Y-17256747D02*
X5403133Y-17266271D01*
X5403133Y-17266271D02*
X5412657Y-17275795D01*
X5412657Y-17275795D02*
X5422181Y-17294842D01*
X5422181Y-17294842D02*
X5431704Y-17332937D01*
X5431704Y-17332937D02*
X5431704Y-17380556D01*
X5431704Y-17380556D02*
X5422181Y-17418652D01*
X5422181Y-17418652D02*
X5412657Y-17437699D01*
X5412657Y-17437699D02*
X5403133Y-17447223D01*
X5403133Y-17447223D02*
X5384085Y-17456747D01*
X5384085Y-17456747D02*
X5365038Y-17456747D01*
X5365038Y-17456747D02*
X5345990Y-17447223D01*
X5345990Y-17447223D02*
X5336466Y-17437699D01*
X5336466Y-17437699D02*
X5326943Y-17418652D01*
X5326943Y-17418652D02*
X5317419Y-17380556D01*
X5317419Y-17380556D02*
X5317419Y-17332937D01*
X5317419Y-17332937D02*
X5326943Y-17294842D01*
X5326943Y-17294842D02*
X5336466Y-17275795D01*
X5336466Y-17275795D02*
X5345990Y-17266271D01*
X5345990Y-17266271D02*
X5365038Y-17256747D01*
X5555514Y-17256747D02*
X5574562Y-17256747D01*
X5574562Y-17256747D02*
X5593609Y-17266271D01*
X5593609Y-17266271D02*
X5603133Y-17275795D01*
X5603133Y-17275795D02*
X5612657Y-17294842D01*
X5612657Y-17294842D02*
X5622181Y-17332937D01*
X5622181Y-17332937D02*
X5622181Y-17380556D01*
X5622181Y-17380556D02*
X5612657Y-17418652D01*
X5612657Y-17418652D02*
X5603133Y-17437699D01*
X5603133Y-17437699D02*
X5593609Y-17447223D01*
X5593609Y-17447223D02*
X5574562Y-17456747D01*
X5574562Y-17456747D02*
X5555514Y-17456747D01*
X5555514Y-17456747D02*
X5536466Y-17447223D01*
X5536466Y-17447223D02*
X5526943Y-17437699D01*
X5526943Y-17437699D02*
X5517419Y-17418652D01*
X5517419Y-17418652D02*
X5507895Y-17380556D01*
X5507895Y-17380556D02*
X5507895Y-17332937D01*
X5507895Y-17332937D02*
X5517419Y-17294842D01*
X5517419Y-17294842D02*
X5526943Y-17275795D01*
X5526943Y-17275795D02*
X5536466Y-17266271D01*
X5536466Y-17266271D02*
X5555514Y-17256747D01*
X5745990Y-17256747D02*
X5765038Y-17256747D01*
X5765038Y-17256747D02*
X5784085Y-17266271D01*
X5784085Y-17266271D02*
X5793609Y-17275795D01*
X5793609Y-17275795D02*
X5803133Y-17294842D01*
X5803133Y-17294842D02*
X5812657Y-17332937D01*
X5812657Y-17332937D02*
X5812657Y-17380556D01*
X5812657Y-17380556D02*
X5803133Y-17418652D01*
X5803133Y-17418652D02*
X5793609Y-17437699D01*
X5793609Y-17437699D02*
X5784085Y-17447223D01*
X5784085Y-17447223D02*
X5765038Y-17456747D01*
X5765038Y-17456747D02*
X5745990Y-17456747D01*
X5745990Y-17456747D02*
X5726942Y-17447223D01*
X5726942Y-17447223D02*
X5717419Y-17437699D01*
X5717419Y-17437699D02*
X5707895Y-17418652D01*
X5707895Y-17418652D02*
X5698371Y-17380556D01*
X5698371Y-17380556D02*
X5698371Y-17332937D01*
X5698371Y-17332937D02*
X5707895Y-17294842D01*
X5707895Y-17294842D02*
X5717419Y-17275795D01*
X5717419Y-17275795D02*
X5726942Y-17266271D01*
X5726942Y-17266271D02*
X5745990Y-17256747D01*
X5888847Y-17256747D02*
X5888847Y-17294842D01*
X5965038Y-17256747D02*
X5965038Y-17294842D01*
X6260276Y-17532937D02*
X6250752Y-17523414D01*
X6250752Y-17523414D02*
X6231704Y-17494842D01*
X6231704Y-17494842D02*
X6222181Y-17475795D01*
X6222181Y-17475795D02*
X6212657Y-17447223D01*
X6212657Y-17447223D02*
X6203133Y-17399604D01*
X6203133Y-17399604D02*
X6203133Y-17361509D01*
X6203133Y-17361509D02*
X6212657Y-17313890D01*
X6212657Y-17313890D02*
X6222181Y-17285318D01*
X6222181Y-17285318D02*
X6231704Y-17266271D01*
X6231704Y-17266271D02*
X6250752Y-17237699D01*
X6250752Y-17237699D02*
X6260276Y-17228175D01*
X6441228Y-17456747D02*
X6326943Y-17456747D01*
X6384085Y-17456747D02*
X6384085Y-17256747D01*
X6384085Y-17256747D02*
X6365038Y-17285318D01*
X6365038Y-17285318D02*
X6345990Y-17304366D01*
X6345990Y-17304366D02*
X6326943Y-17313890D01*
X6669800Y-17447223D02*
X6688847Y-17456747D01*
X6688847Y-17456747D02*
X6726943Y-17456747D01*
X6726943Y-17456747D02*
X6745990Y-17447223D01*
X6745990Y-17447223D02*
X6755514Y-17428175D01*
X6755514Y-17428175D02*
X6755514Y-17418652D01*
X6755514Y-17418652D02*
X6745990Y-17399604D01*
X6745990Y-17399604D02*
X6726943Y-17390080D01*
X6726943Y-17390080D02*
X6698371Y-17390080D01*
X6698371Y-17390080D02*
X6679324Y-17380556D01*
X6679324Y-17380556D02*
X6669800Y-17361509D01*
X6669800Y-17361509D02*
X6669800Y-17351985D01*
X6669800Y-17351985D02*
X6679324Y-17332937D01*
X6679324Y-17332937D02*
X6698371Y-17323414D01*
X6698371Y-17323414D02*
X6726943Y-17323414D01*
X6726943Y-17323414D02*
X6745990Y-17332937D01*
X6869800Y-17456747D02*
X6850752Y-17447223D01*
X6850752Y-17447223D02*
X6841228Y-17428175D01*
X6841228Y-17428175D02*
X6841228Y-17256747D01*
X6974562Y-17456747D02*
X6955514Y-17447223D01*
X6955514Y-17447223D02*
X6945990Y-17437699D01*
X6945990Y-17437699D02*
X6936466Y-17418652D01*
X6936466Y-17418652D02*
X6936466Y-17361509D01*
X6936466Y-17361509D02*
X6945990Y-17342461D01*
X6945990Y-17342461D02*
X6955514Y-17332937D01*
X6955514Y-17332937D02*
X6974562Y-17323414D01*
X6974562Y-17323414D02*
X7003133Y-17323414D01*
X7003133Y-17323414D02*
X7022181Y-17332937D01*
X7022181Y-17332937D02*
X7031705Y-17342461D01*
X7031705Y-17342461D02*
X7041228Y-17361509D01*
X7041228Y-17361509D02*
X7041228Y-17418652D01*
X7041228Y-17418652D02*
X7031705Y-17437699D01*
X7031705Y-17437699D02*
X7022181Y-17447223D01*
X7022181Y-17447223D02*
X7003133Y-17456747D01*
X7003133Y-17456747D02*
X6974562Y-17456747D01*
X7098371Y-17323414D02*
X7174562Y-17323414D01*
X7126943Y-17256747D02*
X7126943Y-17428175D01*
X7126943Y-17428175D02*
X7136466Y-17447223D01*
X7136466Y-17447223D02*
X7155514Y-17456747D01*
X7155514Y-17456747D02*
X7174562Y-17456747D01*
X7222181Y-17532937D02*
X7231705Y-17523414D01*
X7231705Y-17523414D02*
X7250752Y-17494842D01*
X7250752Y-17494842D02*
X7260276Y-17475795D01*
X7260276Y-17475795D02*
X7269800Y-17447223D01*
X7269800Y-17447223D02*
X7279324Y-17399604D01*
X7279324Y-17399604D02*
X7279324Y-17361509D01*
X7279324Y-17361509D02*
X7269800Y-17313890D01*
X7269800Y-17313890D02*
X7260276Y-17285318D01*
X7260276Y-17285318D02*
X7250752Y-17266271D01*
X7250752Y-17266271D02*
X7231705Y-17237699D01*
X7231705Y-17237699D02*
X7222181Y-17228175D01*
M02*
