G04 #@! TF.GenerationSoftware,KiCad,Pcbnew,7.0.6*
G04 #@! TF.CreationDate,2023-08-10T19:19:24-04:00*
G04 #@! TF.ProjectId,jerry,6a657272-792e-46b6-9963-61645f706362,rev?*
G04 #@! TF.SameCoordinates,Original*
G04 #@! TF.FileFunction,Legend,Bot*
G04 #@! TF.FilePolarity,Positive*
%FSLAX46Y46*%
G04 Gerber Fmt 4.6, Leading zero omitted, Abs format (unit mm)*
G04 Created by KiCad (PCBNEW 7.0.6) date 2023-08-10 19:19:24*
%MOMM*%
%LPD*%
G01*
G04 APERTURE LIST*
G04 Aperture macros list*
%AMRoundRect*
0 Rectangle with rounded corners*
0 $1 Rounding radius*
0 $2 $3 $4 $5 $6 $7 $8 $9 X,Y pos of 4 corners*
0 Add a 4 corners polygon primitive as box body*
4,1,4,$2,$3,$4,$5,$6,$7,$8,$9,$2,$3,0*
0 Add four circle primitives for the rounded corners*
1,1,$1+$1,$2,$3*
1,1,$1+$1,$4,$5*
1,1,$1+$1,$6,$7*
1,1,$1+$1,$8,$9*
0 Add four rect primitives between the rounded corners*
20,1,$1+$1,$2,$3,$4,$5,0*
20,1,$1+$1,$4,$5,$6,$7,0*
20,1,$1+$1,$6,$7,$8,$9,0*
20,1,$1+$1,$8,$9,$2,$3,0*%
G04 Aperture macros list end*
%ADD10C,0.150000*%
%ADD11C,0.127000*%
%ADD12C,0.200000*%
%ADD13C,0.240000*%
%ADD14R,1.860000X1.860000*%
%ADD15C,1.860000*%
%ADD16R,1.524000X1.524000*%
%ADD17C,1.524000*%
%ADD18C,6.200000*%
%ADD19R,2.775000X2.775000*%
%ADD20C,2.775000*%
%ADD21C,6.000000*%
%ADD22R,6.000000X6.000000*%
%ADD23R,1.370000X1.370000*%
%ADD24C,1.370000*%
%ADD25R,1.530000X1.530000*%
%ADD26C,1.530000*%
%ADD27R,0.800000X1.600000*%
%ADD28R,2.100000X3.000000*%
%ADD29RoundRect,0.100000X0.217500X0.100000X-0.217500X0.100000X-0.217500X-0.100000X0.217500X-0.100000X0*%
G04 APERTURE END LIST*
D10*
X39873333Y-107404819D02*
X39873333Y-108119104D01*
X39873333Y-108119104D02*
X39920952Y-108261961D01*
X39920952Y-108261961D02*
X40016190Y-108357200D01*
X40016190Y-108357200D02*
X40159047Y-108404819D01*
X40159047Y-108404819D02*
X40254285Y-108404819D01*
X38968571Y-107738152D02*
X38968571Y-108404819D01*
X39206666Y-107357200D02*
X39444761Y-108071485D01*
X39444761Y-108071485D02*
X38825714Y-108071485D01*
X91044338Y-106822562D02*
X91758623Y-106822562D01*
X91758623Y-106822562D02*
X91901480Y-106774943D01*
X91901480Y-106774943D02*
X91996719Y-106679705D01*
X91996719Y-106679705D02*
X92044338Y-106536848D01*
X92044338Y-106536848D02*
X92044338Y-106441610D01*
X91472909Y-107441610D02*
X91425290Y-107346372D01*
X91425290Y-107346372D02*
X91377671Y-107298753D01*
X91377671Y-107298753D02*
X91282433Y-107251134D01*
X91282433Y-107251134D02*
X91234814Y-107251134D01*
X91234814Y-107251134D02*
X91139576Y-107298753D01*
X91139576Y-107298753D02*
X91091957Y-107346372D01*
X91091957Y-107346372D02*
X91044338Y-107441610D01*
X91044338Y-107441610D02*
X91044338Y-107632086D01*
X91044338Y-107632086D02*
X91091957Y-107727324D01*
X91091957Y-107727324D02*
X91139576Y-107774943D01*
X91139576Y-107774943D02*
X91234814Y-107822562D01*
X91234814Y-107822562D02*
X91282433Y-107822562D01*
X91282433Y-107822562D02*
X91377671Y-107774943D01*
X91377671Y-107774943D02*
X91425290Y-107727324D01*
X91425290Y-107727324D02*
X91472909Y-107632086D01*
X91472909Y-107632086D02*
X91472909Y-107441610D01*
X91472909Y-107441610D02*
X91520528Y-107346372D01*
X91520528Y-107346372D02*
X91568147Y-107298753D01*
X91568147Y-107298753D02*
X91663385Y-107251134D01*
X91663385Y-107251134D02*
X91853861Y-107251134D01*
X91853861Y-107251134D02*
X91949099Y-107298753D01*
X91949099Y-107298753D02*
X91996719Y-107346372D01*
X91996719Y-107346372D02*
X92044338Y-107441610D01*
X92044338Y-107441610D02*
X92044338Y-107632086D01*
X92044338Y-107632086D02*
X91996719Y-107727324D01*
X91996719Y-107727324D02*
X91949099Y-107774943D01*
X91949099Y-107774943D02*
X91853861Y-107822562D01*
X91853861Y-107822562D02*
X91663385Y-107822562D01*
X91663385Y-107822562D02*
X91568147Y-107774943D01*
X91568147Y-107774943D02*
X91520528Y-107727324D01*
X91520528Y-107727324D02*
X91472909Y-107632086D01*
X76456904Y-103889819D02*
X76456904Y-104699342D01*
X76456904Y-104699342D02*
X76409285Y-104794580D01*
X76409285Y-104794580D02*
X76361666Y-104842200D01*
X76361666Y-104842200D02*
X76266428Y-104889819D01*
X76266428Y-104889819D02*
X76075952Y-104889819D01*
X76075952Y-104889819D02*
X75980714Y-104842200D01*
X75980714Y-104842200D02*
X75933095Y-104794580D01*
X75933095Y-104794580D02*
X75885476Y-104699342D01*
X75885476Y-104699342D02*
X75885476Y-103889819D01*
X75456904Y-103985057D02*
X75409285Y-103937438D01*
X75409285Y-103937438D02*
X75314047Y-103889819D01*
X75314047Y-103889819D02*
X75075952Y-103889819D01*
X75075952Y-103889819D02*
X74980714Y-103937438D01*
X74980714Y-103937438D02*
X74933095Y-103985057D01*
X74933095Y-103985057D02*
X74885476Y-104080295D01*
X74885476Y-104080295D02*
X74885476Y-104175533D01*
X74885476Y-104175533D02*
X74933095Y-104318390D01*
X74933095Y-104318390D02*
X75504523Y-104889819D01*
X75504523Y-104889819D02*
X74885476Y-104889819D01*
X91142323Y-149115454D02*
X91142323Y-149831016D01*
X91142323Y-149831016D02*
X91190027Y-149974128D01*
X91190027Y-149974128D02*
X91285435Y-150069537D01*
X91285435Y-150069537D02*
X91428548Y-150117241D01*
X91428548Y-150117241D02*
X91523956Y-150117241D01*
X90760690Y-149115454D02*
X90140536Y-149115454D01*
X90140536Y-149115454D02*
X90474465Y-149497087D01*
X90474465Y-149497087D02*
X90331353Y-149497087D01*
X90331353Y-149497087D02*
X90235945Y-149544791D01*
X90235945Y-149544791D02*
X90188240Y-149592495D01*
X90188240Y-149592495D02*
X90140536Y-149687903D01*
X90140536Y-149687903D02*
X90140536Y-149926424D01*
X90140536Y-149926424D02*
X90188240Y-150021832D01*
X90188240Y-150021832D02*
X90235945Y-150069537D01*
X90235945Y-150069537D02*
X90331353Y-150117241D01*
X90331353Y-150117241D02*
X90617578Y-150117241D01*
X90617578Y-150117241D02*
X90712986Y-150069537D01*
X90712986Y-150069537D02*
X90760690Y-150021832D01*
X80107118Y-152010766D02*
X80154737Y-152058386D01*
X80154737Y-152058386D02*
X80297594Y-152106005D01*
X80297594Y-152106005D02*
X80392832Y-152106005D01*
X80392832Y-152106005D02*
X80535689Y-152058386D01*
X80535689Y-152058386D02*
X80630927Y-151963147D01*
X80630927Y-151963147D02*
X80678546Y-151867909D01*
X80678546Y-151867909D02*
X80726165Y-151677433D01*
X80726165Y-151677433D02*
X80726165Y-151534576D01*
X80726165Y-151534576D02*
X80678546Y-151344100D01*
X80678546Y-151344100D02*
X80630927Y-151248862D01*
X80630927Y-151248862D02*
X80535689Y-151153624D01*
X80535689Y-151153624D02*
X80392832Y-151106005D01*
X80392832Y-151106005D02*
X80297594Y-151106005D01*
X80297594Y-151106005D02*
X80154737Y-151153624D01*
X80154737Y-151153624D02*
X80107118Y-151201243D01*
X79726165Y-151201243D02*
X79678546Y-151153624D01*
X79678546Y-151153624D02*
X79583308Y-151106005D01*
X79583308Y-151106005D02*
X79345213Y-151106005D01*
X79345213Y-151106005D02*
X79249975Y-151153624D01*
X79249975Y-151153624D02*
X79202356Y-151201243D01*
X79202356Y-151201243D02*
X79154737Y-151296481D01*
X79154737Y-151296481D02*
X79154737Y-151391719D01*
X79154737Y-151391719D02*
X79202356Y-151534576D01*
X79202356Y-151534576D02*
X79773784Y-152106005D01*
X79773784Y-152106005D02*
X79154737Y-152106005D01*
X97506946Y-152047623D02*
X97554565Y-152095243D01*
X97554565Y-152095243D02*
X97697422Y-152142862D01*
X97697422Y-152142862D02*
X97792660Y-152142862D01*
X97792660Y-152142862D02*
X97935517Y-152095243D01*
X97935517Y-152095243D02*
X98030755Y-152000004D01*
X98030755Y-152000004D02*
X98078374Y-151904766D01*
X98078374Y-151904766D02*
X98125993Y-151714290D01*
X98125993Y-151714290D02*
X98125993Y-151571433D01*
X98125993Y-151571433D02*
X98078374Y-151380957D01*
X98078374Y-151380957D02*
X98030755Y-151285719D01*
X98030755Y-151285719D02*
X97935517Y-151190481D01*
X97935517Y-151190481D02*
X97792660Y-151142862D01*
X97792660Y-151142862D02*
X97697422Y-151142862D01*
X97697422Y-151142862D02*
X97554565Y-151190481D01*
X97554565Y-151190481D02*
X97506946Y-151238100D01*
X97173612Y-151142862D02*
X96554565Y-151142862D01*
X96554565Y-151142862D02*
X96887898Y-151523814D01*
X96887898Y-151523814D02*
X96745041Y-151523814D01*
X96745041Y-151523814D02*
X96649803Y-151571433D01*
X96649803Y-151571433D02*
X96602184Y-151619052D01*
X96602184Y-151619052D02*
X96554565Y-151714290D01*
X96554565Y-151714290D02*
X96554565Y-151952385D01*
X96554565Y-151952385D02*
X96602184Y-152047623D01*
X96602184Y-152047623D02*
X96649803Y-152095243D01*
X96649803Y-152095243D02*
X96745041Y-152142862D01*
X96745041Y-152142862D02*
X97030755Y-152142862D01*
X97030755Y-152142862D02*
X97125993Y-152095243D01*
X97125993Y-152095243D02*
X97173612Y-152047623D01*
X54917323Y-149115454D02*
X54917323Y-149831016D01*
X54917323Y-149831016D02*
X54965027Y-149974128D01*
X54965027Y-149974128D02*
X55060435Y-150069537D01*
X55060435Y-150069537D02*
X55203548Y-150117241D01*
X55203548Y-150117241D02*
X55298956Y-150117241D01*
X53915536Y-150117241D02*
X54487986Y-150117241D01*
X54201761Y-150117241D02*
X54201761Y-149115454D01*
X54201761Y-149115454D02*
X54297169Y-149258566D01*
X54297169Y-149258566D02*
X54392578Y-149353974D01*
X54392578Y-149353974D02*
X54487986Y-149401679D01*
X73242323Y-149115454D02*
X73242323Y-149831016D01*
X73242323Y-149831016D02*
X73290027Y-149974128D01*
X73290027Y-149974128D02*
X73385435Y-150069537D01*
X73385435Y-150069537D02*
X73528548Y-150117241D01*
X73528548Y-150117241D02*
X73623956Y-150117241D01*
X72812986Y-149210862D02*
X72765282Y-149163158D01*
X72765282Y-149163158D02*
X72669874Y-149115454D01*
X72669874Y-149115454D02*
X72431353Y-149115454D01*
X72431353Y-149115454D02*
X72335945Y-149163158D01*
X72335945Y-149163158D02*
X72288240Y-149210862D01*
X72288240Y-149210862D02*
X72240536Y-149306270D01*
X72240536Y-149306270D02*
X72240536Y-149401679D01*
X72240536Y-149401679D02*
X72288240Y-149544791D01*
X72288240Y-149544791D02*
X72860690Y-150117241D01*
X72860690Y-150117241D02*
X72240536Y-150117241D01*
X44559819Y-108809166D02*
X45274104Y-108809166D01*
X45274104Y-108809166D02*
X45416961Y-108761547D01*
X45416961Y-108761547D02*
X45512200Y-108666309D01*
X45512200Y-108666309D02*
X45559819Y-108523452D01*
X45559819Y-108523452D02*
X45559819Y-108428214D01*
X44559819Y-109190119D02*
X44559819Y-109856785D01*
X44559819Y-109856785D02*
X45559819Y-109428214D01*
X61975216Y-151932249D02*
X62022835Y-151979869D01*
X62022835Y-151979869D02*
X62165692Y-152027488D01*
X62165692Y-152027488D02*
X62260930Y-152027488D01*
X62260930Y-152027488D02*
X62403787Y-151979869D01*
X62403787Y-151979869D02*
X62499025Y-151884630D01*
X62499025Y-151884630D02*
X62546644Y-151789392D01*
X62546644Y-151789392D02*
X62594263Y-151598916D01*
X62594263Y-151598916D02*
X62594263Y-151456059D01*
X62594263Y-151456059D02*
X62546644Y-151265583D01*
X62546644Y-151265583D02*
X62499025Y-151170345D01*
X62499025Y-151170345D02*
X62403787Y-151075107D01*
X62403787Y-151075107D02*
X62260930Y-151027488D01*
X62260930Y-151027488D02*
X62165692Y-151027488D01*
X62165692Y-151027488D02*
X62022835Y-151075107D01*
X62022835Y-151075107D02*
X61975216Y-151122726D01*
X61022835Y-152027488D02*
X61594263Y-152027488D01*
X61308549Y-152027488D02*
X61308549Y-151027488D01*
X61308549Y-151027488D02*
X61403787Y-151170345D01*
X61403787Y-151170345D02*
X61499025Y-151265583D01*
X61499025Y-151265583D02*
X61594263Y-151313202D01*
D11*
X37000000Y-107340000D02*
X37000000Y-108340000D01*
X36500000Y-107840000D02*
X37500000Y-107840000D01*
X41050000Y-109090000D02*
X32950000Y-109090000D01*
X32950000Y-109090000D02*
X32950000Y-121790000D01*
X41050000Y-121790000D02*
X41050000Y-109090000D01*
X32950000Y-121790000D02*
X35400000Y-124590000D01*
X38600000Y-124590000D02*
X41050000Y-121790000D01*
X35400000Y-124590000D02*
X38600000Y-124590000D01*
X37000000Y-125340000D02*
X37000000Y-126340000D01*
D12*
X90170000Y-106967500D02*
X87630000Y-106967500D01*
X90170000Y-122207500D02*
X90170000Y-106967500D01*
X87630000Y-122207500D02*
X87630000Y-106967500D01*
X87630000Y-122207500D02*
X90170000Y-122207500D01*
X89000000Y-106317500D02*
G75*
G03*
X89000000Y-106317500I-100000J0D01*
G01*
D11*
X78740000Y-125730000D02*
X78740000Y-105410000D01*
X78740000Y-105410000D02*
X63500000Y-105410000D01*
X63500000Y-125730000D02*
X78740000Y-125730000D01*
X63500000Y-105410000D02*
X63500000Y-125730000D01*
D12*
X79620000Y-106120000D02*
G75*
G03*
X79620000Y-106120000I-100000J0D01*
G01*
D11*
X92275000Y-156570000D02*
X92275000Y-156295000D01*
X92275000Y-156570000D02*
X85525000Y-156570000D01*
X92275000Y-152370000D02*
X92275000Y-152570000D01*
X91550000Y-152370000D02*
X92275000Y-152370000D01*
X86250000Y-152370000D02*
X85525000Y-152370000D01*
X85525000Y-156570000D02*
X85525000Y-156295000D01*
X85525000Y-152370000D02*
X85525000Y-152570000D01*
D13*
X92035000Y-151070000D02*
G75*
G03*
X92035000Y-151070000I-120000J0D01*
G01*
D11*
X56050000Y-156570000D02*
X56050000Y-156295000D01*
X56050000Y-156570000D02*
X49300000Y-156570000D01*
X56050000Y-152370000D02*
X56050000Y-152570000D01*
X55325000Y-152370000D02*
X56050000Y-152370000D01*
X50025000Y-152370000D02*
X49300000Y-152370000D01*
X49300000Y-156570000D02*
X49300000Y-156295000D01*
X49300000Y-152370000D02*
X49300000Y-152570000D01*
D13*
X55810000Y-151070000D02*
G75*
G03*
X55810000Y-151070000I-120000J0D01*
G01*
D11*
X74375000Y-156570000D02*
X74375000Y-156295000D01*
X74375000Y-156570000D02*
X67625000Y-156570000D01*
X74375000Y-152370000D02*
X74375000Y-152570000D01*
X73650000Y-152370000D02*
X74375000Y-152370000D01*
X68350000Y-152370000D02*
X67625000Y-152370000D01*
X67625000Y-156570000D02*
X67625000Y-156295000D01*
X67625000Y-152370000D02*
X67625000Y-152570000D01*
D13*
X74135000Y-151070000D02*
G75*
G03*
X74135000Y-151070000I-120000J0D01*
G01*
D12*
X49530000Y-106967500D02*
X46990000Y-106967500D01*
X49530000Y-122207500D02*
X49530000Y-106967500D01*
X46990000Y-122207500D02*
X46990000Y-106967500D01*
X46990000Y-122207500D02*
X49530000Y-122207500D01*
X48360000Y-106317500D02*
G75*
G03*
X48360000Y-106317500I-100000J0D01*
G01*
%LPC*%
D14*
X107950000Y-93980000D03*
D15*
X110490000Y-93980000D03*
X113030000Y-93980000D03*
D16*
X95620000Y-81440000D03*
D17*
X98160000Y-81440000D03*
X95620000Y-83980000D03*
X98160000Y-83980000D03*
X95620000Y-86520000D03*
X98160000Y-86520000D03*
X95620000Y-89060000D03*
X98160000Y-89060000D03*
X95620000Y-91600000D03*
X98160000Y-91600000D03*
X95620000Y-94140000D03*
X98160000Y-94140000D03*
X95620000Y-96680000D03*
X98160000Y-96680000D03*
X95620000Y-99220000D03*
X98160000Y-99220000D03*
X95620000Y-101760000D03*
X98160000Y-101760000D03*
X95620000Y-104300000D03*
X98160000Y-104300000D03*
X95620000Y-106840000D03*
X98160000Y-106840000D03*
X95620000Y-109380000D03*
X98160000Y-109380000D03*
X95620000Y-111920000D03*
X98160000Y-111920000D03*
X95620000Y-114460000D03*
X98160000Y-114460000D03*
X95620000Y-117000000D03*
X98160000Y-117000000D03*
X95620000Y-119540000D03*
X98160000Y-119540000D03*
X95620000Y-122080000D03*
X98160000Y-122080000D03*
X95620000Y-124620000D03*
X98160000Y-124620000D03*
X95620000Y-127160000D03*
X98160000Y-127160000D03*
X95620000Y-129700000D03*
X98160000Y-129700000D03*
X89497000Y-135800000D03*
X92037000Y-135800000D03*
X89497000Y-133260000D03*
X92037000Y-133260000D03*
D18*
X96890000Y-76570000D03*
X96890000Y-134570000D03*
X47890000Y-134570000D03*
X47890000Y-76570000D03*
D19*
X33020000Y-81660000D03*
D20*
X33020000Y-86360000D03*
X33020000Y-91060000D03*
D14*
X107950000Y-82550000D03*
D15*
X110490000Y-82550000D03*
X113030000Y-82550000D03*
D21*
X37000000Y-120440000D03*
D22*
X37000000Y-113240000D03*
D23*
X88900000Y-108237500D03*
D24*
X88900000Y-110777500D03*
X88900000Y-113317500D03*
X88900000Y-115857500D03*
X88900000Y-118397500D03*
X88900000Y-120937500D03*
D25*
X77470000Y-106680000D03*
D26*
X77470000Y-109220000D03*
X77470000Y-111760000D03*
X77470000Y-114300000D03*
X77470000Y-116840000D03*
X77470000Y-119380000D03*
X77470000Y-121920000D03*
X77470000Y-124460000D03*
X64770000Y-124460000D03*
X64770000Y-121920000D03*
X64770000Y-119380000D03*
X64770000Y-116840000D03*
X64770000Y-114300000D03*
X64770000Y-111760000D03*
X64770000Y-109220000D03*
X64770000Y-106680000D03*
D27*
X90775000Y-151570000D03*
X89525000Y-151570000D03*
X88275000Y-151570000D03*
X87025000Y-151570000D03*
D28*
X93325000Y-154470000D03*
X84475000Y-154470000D03*
D29*
X80347952Y-152701186D03*
X79532952Y-152701186D03*
X97747780Y-152738043D03*
X96932780Y-152738043D03*
D27*
X54550000Y-151570000D03*
X53300000Y-151570000D03*
X52050000Y-151570000D03*
X50800000Y-151570000D03*
D28*
X57100000Y-154470000D03*
X48250000Y-154470000D03*
D27*
X72875000Y-151570000D03*
X71625000Y-151570000D03*
X70375000Y-151570000D03*
X69125000Y-151570000D03*
D28*
X75425000Y-154470000D03*
X66575000Y-154470000D03*
D23*
X48260000Y-108237500D03*
D24*
X48260000Y-110777500D03*
X48260000Y-113317500D03*
X48260000Y-115857500D03*
X48260000Y-118397500D03*
X48260000Y-120937500D03*
D29*
X62216050Y-152622669D03*
X61401050Y-152622669D03*
%LPD*%
M02*
