%TF.GenerationSoftware,KiCad,Pcbnew,7.0.6*%
%TF.CreationDate,2023-08-10T19:19:34-04:00*%
%TF.ProjectId,jerry,6a657272-792e-46b6-9963-61645f706362,rev?*%
%TF.SameCoordinates,Original*%
%TF.FileFunction,Drillmap*%
%TF.FilePolarity,Positive*%
%FSLAX45Y45*%
G04 Gerber Fmt 4.5, Leading zero omitted, Abs format (unit mm)*
G04 Created by KiCad (PCBNEW 7.0.6) date 2023-08-10 19:19:34*
%MOMM*%
%LPD*%
G01*
G04 APERTURE LIST*
%ADD10C,0.100000*%
%ADD11C,0.200000*%
G04 APERTURE END LIST*
D10*
X11925000Y-7000000D02*
X2575000Y-7000000D01*
D11*
X3130000Y-15900000D02*
G75*
G03*
X3130000Y-15900000I-130000J0D01*
G01*
D10*
X2575000Y-7000000D02*
G75*
G03*
X2500000Y-7075000I-6030J-68970D01*
G01*
X2575000Y-16400000D02*
X11925000Y-16400000D01*
D11*
X11630000Y-7500000D02*
G75*
G03*
X11630000Y-7500000I-130000J0D01*
G01*
X3130000Y-7500000D02*
G75*
G03*
X3130000Y-7500000I-130000J0D01*
G01*
D10*
X2500000Y-7075000D02*
X2500000Y-16325000D01*
X11925000Y-16400000D02*
G75*
G03*
X12000000Y-16325000I6030J68970D01*
G01*
D11*
X11630000Y-15900000D02*
G75*
G03*
X11630000Y-15900000I-130000J0D01*
G01*
D10*
X12000000Y-7075000D02*
G75*
G03*
X11925000Y-7000000I-68970J6030D01*
G01*
X12000000Y-16325000D02*
X12000000Y-7075000D01*
X2500000Y-16325000D02*
G75*
G03*
X2575000Y-16400000I68970J-6030D01*
G01*
D11*
X2755514Y-16716747D02*
X2755514Y-16516747D01*
X2755514Y-16516747D02*
X2803133Y-16516747D01*
X2803133Y-16516747D02*
X2831704Y-16526271D01*
X2831704Y-16526271D02*
X2850752Y-16545318D01*
X2850752Y-16545318D02*
X2860276Y-16564366D01*
X2860276Y-16564366D02*
X2869799Y-16602461D01*
X2869799Y-16602461D02*
X2869799Y-16631033D01*
X2869799Y-16631033D02*
X2860276Y-16669128D01*
X2860276Y-16669128D02*
X2850752Y-16688175D01*
X2850752Y-16688175D02*
X2831704Y-16707223D01*
X2831704Y-16707223D02*
X2803133Y-16716747D01*
X2803133Y-16716747D02*
X2755514Y-16716747D01*
X2955514Y-16716747D02*
X2955514Y-16583413D01*
X2955514Y-16621509D02*
X2965037Y-16602461D01*
X2965037Y-16602461D02*
X2974561Y-16592937D01*
X2974561Y-16592937D02*
X2993609Y-16583413D01*
X2993609Y-16583413D02*
X3012657Y-16583413D01*
X3079323Y-16716747D02*
X3079323Y-16583413D01*
X3079323Y-16516747D02*
X3069799Y-16526271D01*
X3069799Y-16526271D02*
X3079323Y-16535794D01*
X3079323Y-16535794D02*
X3088847Y-16526271D01*
X3088847Y-16526271D02*
X3079323Y-16516747D01*
X3079323Y-16516747D02*
X3079323Y-16535794D01*
X3203133Y-16716747D02*
X3184085Y-16707223D01*
X3184085Y-16707223D02*
X3174561Y-16688175D01*
X3174561Y-16688175D02*
X3174561Y-16516747D01*
X3307895Y-16716747D02*
X3288847Y-16707223D01*
X3288847Y-16707223D02*
X3279323Y-16688175D01*
X3279323Y-16688175D02*
X3279323Y-16516747D01*
X3536466Y-16716747D02*
X3536466Y-16516747D01*
X3536466Y-16516747D02*
X3603133Y-16659604D01*
X3603133Y-16659604D02*
X3669799Y-16516747D01*
X3669799Y-16516747D02*
X3669799Y-16716747D01*
X3850752Y-16716747D02*
X3850752Y-16611985D01*
X3850752Y-16611985D02*
X3841228Y-16592937D01*
X3841228Y-16592937D02*
X3822180Y-16583413D01*
X3822180Y-16583413D02*
X3784085Y-16583413D01*
X3784085Y-16583413D02*
X3765037Y-16592937D01*
X3850752Y-16707223D02*
X3831704Y-16716747D01*
X3831704Y-16716747D02*
X3784085Y-16716747D01*
X3784085Y-16716747D02*
X3765037Y-16707223D01*
X3765037Y-16707223D02*
X3755514Y-16688175D01*
X3755514Y-16688175D02*
X3755514Y-16669128D01*
X3755514Y-16669128D02*
X3765037Y-16650080D01*
X3765037Y-16650080D02*
X3784085Y-16640556D01*
X3784085Y-16640556D02*
X3831704Y-16640556D01*
X3831704Y-16640556D02*
X3850752Y-16631033D01*
X3945990Y-16583413D02*
X3945990Y-16783414D01*
X3945990Y-16592937D02*
X3965037Y-16583413D01*
X3965037Y-16583413D02*
X4003133Y-16583413D01*
X4003133Y-16583413D02*
X4022180Y-16592937D01*
X4022180Y-16592937D02*
X4031704Y-16602461D01*
X4031704Y-16602461D02*
X4041228Y-16621509D01*
X4041228Y-16621509D02*
X4041228Y-16678652D01*
X4041228Y-16678652D02*
X4031704Y-16697699D01*
X4031704Y-16697699D02*
X4022180Y-16707223D01*
X4022180Y-16707223D02*
X4003133Y-16716747D01*
X4003133Y-16716747D02*
X3965037Y-16716747D01*
X3965037Y-16716747D02*
X3945990Y-16707223D01*
X4126942Y-16697699D02*
X4136466Y-16707223D01*
X4136466Y-16707223D02*
X4126942Y-16716747D01*
X4126942Y-16716747D02*
X4117418Y-16707223D01*
X4117418Y-16707223D02*
X4126942Y-16697699D01*
X4126942Y-16697699D02*
X4126942Y-16716747D01*
X4126942Y-16592937D02*
X4136466Y-16602461D01*
X4136466Y-16602461D02*
X4126942Y-16611985D01*
X4126942Y-16611985D02*
X4117418Y-16602461D01*
X4117418Y-16602461D02*
X4126942Y-16592937D01*
X4126942Y-16592937D02*
X4126942Y-16611985D01*
M02*
