M48
; DRILL file {KiCad 7.0.6} date Thu Aug 10 19:19:33 2023
; FORMAT={-:-/ absolute / metric / decimal}
; #@! TF.CreationDate,2023-08-10T19:19:33-04:00
; #@! TF.GenerationSoftware,Kicad,Pcbnew,7.0.6
; #@! TF.FileFunction,Plated,1,2,PTH
FMAT,2
METRIC
; #@! TA.AperFunction,Plated,PTH,ViaDrill
T1C0.400
; #@! TA.AperFunction,Plated,PTH,ComponentDrill
T2C1.016
; #@! TA.AperFunction,Plated,PTH,ComponentDrill
T3C1.020
; #@! TA.AperFunction,Plated,PTH,ComponentDrill
T4C1.240
; #@! TA.AperFunction,Plated,PTH,ComponentDrill
T5C1.850
; #@! TA.AperFunction,Plated,PTH,ComponentDrill
T6C2.750
; #@! TA.AperFunction,Plated,PTH,ComponentDrill
T7C4.550
%
G90
G05
T1
X27.94Y-139.651
X27.94Y-144.731
X27.94Y-149.811
X40.64Y-85.68
X50.8Y-88.9
X55.747Y-149.217
X63.697Y-151.46
X70.387Y-148.34
X71.12Y-129.54
X71.12Y-132.08
X73.592Y-145.104
X74.427Y-149.217
X78.74Y-129.54
X78.74Y-132.08
X81.709Y-151.88
X92.166Y-149.316
X99.151Y-151.806
X101.6Y-101.6
X101.887Y-80.516
X102.007Y-90.687
X111.146Y-116.758
X111.24Y-99.328
X111.278Y-106.825
T2
X89.497Y-133.26
X89.497Y-135.8
X92.037Y-133.26
X92.037Y-135.8
X95.62Y-81.44
X95.62Y-83.98
X95.62Y-86.52
X95.62Y-89.06
X95.62Y-91.6
X95.62Y-94.14
X95.62Y-96.68
X95.62Y-99.22
X95.62Y-101.76
X95.62Y-104.3
X95.62Y-106.84
X95.62Y-109.38
X95.62Y-111.92
X95.62Y-114.46
X95.62Y-117.0
X95.62Y-119.54
X95.62Y-122.08
X95.62Y-124.62
X95.62Y-127.16
X95.62Y-129.7
X98.16Y-81.44
X98.16Y-83.98
X98.16Y-86.52
X98.16Y-89.06
X98.16Y-91.6
X98.16Y-94.14
X98.16Y-96.68
X98.16Y-99.22
X98.16Y-101.76
X98.16Y-104.3
X98.16Y-106.84
X98.16Y-109.38
X98.16Y-111.92
X98.16Y-114.46
X98.16Y-117.0
X98.16Y-119.54
X98.16Y-122.08
X98.16Y-124.62
X98.16Y-127.16
X98.16Y-129.7
T3
X48.26Y-108.237
X48.26Y-110.777
X48.26Y-113.317
X48.26Y-115.858
X48.26Y-118.397
X48.26Y-120.938
X64.77Y-106.68
X64.77Y-109.22
X64.77Y-111.76
X64.77Y-114.3
X64.77Y-116.84
X64.77Y-119.38
X64.77Y-121.92
X64.77Y-124.46
X77.47Y-106.68
X77.47Y-109.22
X77.47Y-111.76
X77.47Y-114.3
X77.47Y-116.84
X77.47Y-119.38
X77.47Y-121.92
X77.47Y-124.46
X88.9Y-108.237
X88.9Y-110.777
X88.9Y-113.317
X88.9Y-115.858
X88.9Y-118.397
X88.9Y-120.938
T4
X107.95Y-82.55
X107.95Y-93.98
X110.49Y-82.55
X110.49Y-93.98
X113.03Y-82.55
X113.03Y-93.98
T5
X33.02Y-81.66
X33.02Y-86.36
X33.02Y-91.06
T6
X47.89Y-76.57
X47.89Y-134.57
X96.89Y-76.57
X96.89Y-134.57
T7
X37.0Y-113.24
X37.0Y-120.44
T0
M30
