G04 #@! TF.GenerationSoftware,KiCad,Pcbnew,7.0.6*
G04 #@! TF.CreationDate,2023-08-10T19:19:24-04:00*
G04 #@! TF.ProjectId,jerry,6a657272-792e-46b6-9963-61645f706362,rev?*
G04 #@! TF.SameCoordinates,Original*
G04 #@! TF.FileFunction,Soldermask,Top*
G04 #@! TF.FilePolarity,Negative*
%FSLAX46Y46*%
G04 Gerber Fmt 4.6, Leading zero omitted, Abs format (unit mm)*
G04 Created by KiCad (PCBNEW 7.0.6) date 2023-08-10 19:19:24*
%MOMM*%
%LPD*%
G01*
G04 APERTURE LIST*
G04 Aperture macros list*
%AMRoundRect*
0 Rectangle with rounded corners*
0 $1 Rounding radius*
0 $2 $3 $4 $5 $6 $7 $8 $9 X,Y pos of 4 corners*
0 Add a 4 corners polygon primitive as box body*
4,1,4,$2,$3,$4,$5,$6,$7,$8,$9,$2,$3,0*
0 Add four circle primitives for the rounded corners*
1,1,$1+$1,$2,$3*
1,1,$1+$1,$4,$5*
1,1,$1+$1,$6,$7*
1,1,$1+$1,$8,$9*
0 Add four rect primitives between the rounded corners*
20,1,$1+$1,$2,$3,$4,$5,0*
20,1,$1+$1,$4,$5,$6,$7,0*
20,1,$1+$1,$6,$7,$8,$9,0*
20,1,$1+$1,$8,$9,$2,$3,0*%
G04 Aperture macros list end*
%ADD10RoundRect,0.100000X0.217500X0.100000X-0.217500X0.100000X-0.217500X-0.100000X0.217500X-0.100000X0*%
%ADD11RoundRect,0.100000X-0.217500X-0.100000X0.217500X-0.100000X0.217500X0.100000X-0.217500X0.100000X0*%
%ADD12R,1.860000X1.860000*%
%ADD13C,1.860000*%
%ADD14R,1.524000X1.524000*%
%ADD15C,1.524000*%
%ADD16C,6.200000*%
%ADD17RoundRect,0.100000X0.100000X-0.217500X0.100000X0.217500X-0.100000X0.217500X-0.100000X-0.217500X0*%
%ADD18R,2.775000X2.775000*%
%ADD19C,2.775000*%
%ADD20RoundRect,0.100000X-0.100000X0.217500X-0.100000X-0.217500X0.100000X-0.217500X0.100000X0.217500X0*%
%ADD21R,1.800000X1.170000*%
%ADD22C,6.000000*%
%ADD23R,6.000000X6.000000*%
%ADD24R,1.370000X1.370000*%
%ADD25C,1.370000*%
%ADD26R,1.530000X1.530000*%
%ADD27C,1.530000*%
G04 APERTURE END LIST*
D10*
X31320000Y-139588410D03*
X30505000Y-139588410D03*
X31296196Y-144780000D03*
X30481196Y-144780000D03*
D11*
X116000000Y-115570000D03*
X116815000Y-115570000D03*
D12*
X107950000Y-93980000D03*
D13*
X110490000Y-93980000D03*
X113030000Y-93980000D03*
D14*
X95620000Y-81440000D03*
D15*
X98160000Y-81440000D03*
X95620000Y-83980000D03*
X98160000Y-83980000D03*
X95620000Y-86520000D03*
X98160000Y-86520000D03*
X95620000Y-89060000D03*
X98160000Y-89060000D03*
X95620000Y-91600000D03*
X98160000Y-91600000D03*
X95620000Y-94140000D03*
X98160000Y-94140000D03*
X95620000Y-96680000D03*
X98160000Y-96680000D03*
X95620000Y-99220000D03*
X98160000Y-99220000D03*
X95620000Y-101760000D03*
X98160000Y-101760000D03*
X95620000Y-104300000D03*
X98160000Y-104300000D03*
X95620000Y-106840000D03*
X98160000Y-106840000D03*
X95620000Y-109380000D03*
X98160000Y-109380000D03*
X95620000Y-111920000D03*
X98160000Y-111920000D03*
X95620000Y-114460000D03*
X98160000Y-114460000D03*
X95620000Y-117000000D03*
X98160000Y-117000000D03*
X95620000Y-119540000D03*
X98160000Y-119540000D03*
X95620000Y-122080000D03*
X98160000Y-122080000D03*
X95620000Y-124620000D03*
X98160000Y-124620000D03*
X95620000Y-127160000D03*
X98160000Y-127160000D03*
X95620000Y-129700000D03*
X98160000Y-129700000D03*
X89497000Y-135800000D03*
X92037000Y-135800000D03*
X89497000Y-133260000D03*
X92037000Y-133260000D03*
D16*
X96890000Y-76570000D03*
X96890000Y-134570000D03*
X47890000Y-134570000D03*
X47890000Y-76570000D03*
D11*
X35585000Y-139650518D03*
X36400000Y-139650518D03*
X35585000Y-144730518D03*
X36400000Y-144730518D03*
X48285000Y-88900000D03*
X49100000Y-88900000D03*
D10*
X113235874Y-107962115D03*
X112420874Y-107962115D03*
D17*
X39370000Y-84175000D03*
X39370000Y-83360000D03*
D18*
X33020000Y-81660000D03*
D19*
X33020000Y-86360000D03*
X33020000Y-91060000D03*
D11*
X116000000Y-100330000D03*
X116815000Y-100330000D03*
D20*
X102644538Y-95296992D03*
X102644538Y-96111992D03*
X102756645Y-81967984D03*
X102756645Y-82782984D03*
X102672028Y-92232869D03*
X102672028Y-93047869D03*
D11*
X48285000Y-83820000D03*
X49100000Y-83820000D03*
D17*
X39370000Y-81635000D03*
X39370000Y-80820000D03*
D10*
X113244206Y-100379482D03*
X112429206Y-100379482D03*
X113202971Y-115569999D03*
X112387971Y-115569999D03*
D11*
X116000000Y-107950000D03*
X116815000Y-107950000D03*
D10*
X31238641Y-149775553D03*
X30423641Y-149775553D03*
D11*
X35585000Y-149810518D03*
X36400000Y-149810518D03*
D12*
X107950000Y-82550000D03*
D13*
X110490000Y-82550000D03*
X113030000Y-82550000D03*
D21*
X39370000Y-92020000D03*
X39370000Y-89080000D03*
D20*
X102776838Y-85151507D03*
X102776838Y-85966507D03*
D22*
X37000000Y-120440000D03*
D23*
X37000000Y-113240000D03*
D24*
X88900000Y-108237500D03*
D25*
X88900000Y-110777500D03*
X88900000Y-113317500D03*
X88900000Y-115857500D03*
X88900000Y-118397500D03*
X88900000Y-120937500D03*
D26*
X77470000Y-106680000D03*
D27*
X77470000Y-109220000D03*
X77470000Y-111760000D03*
X77470000Y-114300000D03*
X77470000Y-116840000D03*
X77470000Y-119380000D03*
X77470000Y-121920000D03*
X77470000Y-124460000D03*
X64770000Y-124460000D03*
X64770000Y-121920000D03*
X64770000Y-119380000D03*
X64770000Y-116840000D03*
X64770000Y-114300000D03*
X64770000Y-111760000D03*
X64770000Y-109220000D03*
X64770000Y-106680000D03*
D24*
X48260000Y-108237500D03*
D25*
X48260000Y-110777500D03*
X48260000Y-113317500D03*
X48260000Y-115857500D03*
X48260000Y-118397500D03*
X48260000Y-120937500D03*
M02*
